<svg width="195" height="73" viewBox="0 0 195 73" fill="none" xmlns="http://www.w3.org/2000/svg">
<path d="M106.492 14.0202C103.411 10.8829 99.3674 9.31422 94.3676 9.31422C90.6268 9.31422 87.2976 10.0711 84.3679 11.6153C81.4442 13.1473 79.017 15.2287 77.0921 17.8594C75.1672 20.5023 73.7387 23.609 72.8065 27.1919C72.0922 29.8592 71.723 32.4105 71.723 34.8154C71.723 37.4217 72.2617 39.9913 73.3271 42.5426C74.4045 45.1001 76.2083 47.2364 78.7627 48.9637C81.3232 50.685 84.4889 51.5517 88.26 51.5517C92.6061 51.5517 96.4982 50.4652 99.9485 48.2923C103.387 46.1255 106.111 43.0309 108.12 38.9964C110.13 34.968 111.129 30.8053 111.129 26.49C111.129 21.3202 109.591 17.1574 106.498 14.0202H106.492ZM100.784 35.499C99.4279 38.5386 97.721 40.8031 95.6508 42.2924C93.5746 43.7817 91.4197 44.5324 89.174 44.5324C86.4138 44.5324 84.1923 43.5803 82.4914 41.6942C80.7966 39.8021 79.9491 37.4583 79.9491 34.6506C79.9491 30.0789 81.2324 25.8918 83.7747 22.0709C86.3291 18.2439 89.6341 16.3334 93.6957 16.3334C96.353 16.3334 98.5321 17.2429 100.245 19.0801C101.952 20.9051 102.806 23.4198 102.806 26.6365C102.806 29.5174 102.128 32.4716 100.778 35.5051L100.784 35.499Z" fill="black"/>
<path fill-rule="evenodd" clip-rule="evenodd" d="M11.8822 0L14.9511 7.68453C5.93202 13.8187 0 24.2133 0 36.0056C0 54.8599 15.163 70.1496 33.8609 70.1496C39.4237 70.1496 44.6657 68.7946 49.2963 66.4019L53.9874 73L49.0179 62.1477C44.5688 64.7783 39.3874 66.2859 33.8609 66.2859C17.2755 66.2859 3.8316 52.7236 3.8316 36.0056C3.8316 24.9763 9.68493 15.3202 18.4316 10.0283L11.8822 0Z" fill="url(#paint0_radial_3492_44)"/>
<path d="M26.9786 9.32641C25.1021 9.98561 23.2277 10.771 21.3553 11.6824C21.3553 11.6824 21.3371 11.658 21.3129 11.6641C23.147 10.6509 25.0416 9.87575 26.9786 9.32641ZM9.06752 26.0261C8.8375 26.8501 8.82539 26.9355 8.68617 28.0403C8.20798 29.139 8.16561 29.2305 7.92348 30.0972C8.20193 28.7117 8.58327 27.3506 9.06752 26.0261ZM12.2756 19.8369C12.8749 19.0252 12.9173 18.9702 13.6679 18.073C13.5024 19.0781 13.5226 20.3395 13.7284 21.8573C12.0174 23.6111 10.5263 25.3404 9.25516 27.0454C9.40044 25.5317 9.40649 25.4767 9.75151 24.3293C10.4476 22.7606 11.289 21.253 12.2756 19.8369ZM14.6121 17.072C16.3675 15.5135 18.2359 14.0425 20.2173 12.659C20.6128 13.4281 21.1636 14.482 21.8698 15.8207C19.4526 17.4158 17.1464 19.0679 14.9511 20.7769C14.6485 19.2836 14.5334 18.0486 14.6061 17.072H14.6121ZM21.5248 11.8839C23.716 10.8177 25.9052 9.90016 28.0924 9.1311C28.9721 9.54615 29.989 10.2521 31.1431 11.2491C28.5887 12.3315 26.0222 13.5441 23.4436 14.8869C22.6486 13.597 22.009 12.5939 21.5248 11.8778V11.8839ZM29.418 8.8015C30.562 8.58787 30.6528 8.56956 31.5729 8.45359C33.3041 8.28269 35.0413 8.27658 36.7604 8.44138C37.9407 8.70384 37.9891 8.72215 39.345 9.33862C37.2466 9.61532 35.0191 10.0731 32.6624 10.7119C31.4518 9.78419 30.3703 9.14737 29.418 8.8015ZM42.65 9.68043C41.7663 9.4607 41.6694 9.44849 40.5072 9.33252C39.4903 8.91136 39.4056 8.88085 38.5763 8.67332C39.9564 8.90526 41.3183 9.24096 42.644 9.67432L42.65 9.68043ZM7.78426 40.1195V40.1256V40.1134V40.1195ZM7.56635 32.3861C7.89927 31.0311 7.92348 30.9884 8.67407 29.4197C8.9404 31.5275 9.38833 33.7615 10.0178 36.1216C8.9969 37.4033 8.26044 38.5651 7.80848 39.6068C7.54214 37.9893 7.52398 37.9038 7.41503 36.4939C7.36055 35.1206 7.41503 33.7472 7.57241 32.3861H7.56635ZM9.30359 28.437C10.6797 26.7361 12.2736 25.0108 14.0855 23.2611C14.82 25.4462 15.7098 27.7982 16.7549 30.317C14.5839 32.0179 12.6267 33.6536 10.8834 35.2243C10.1813 32.8154 9.65467 30.553 9.30359 28.437ZM15.3748 22.1686C17.6669 20.4351 20.07 18.7485 22.584 17.1086C23.7462 19.1798 25.0255 21.4524 26.4217 23.9264C23.601 25.6883 20.8811 27.4543 18.2621 29.2244C17.1484 26.6975 16.1859 24.3455 15.3748 22.1686ZM24.2063 16.1564C26.8575 14.7567 29.5027 13.4749 32.1419 12.3111C33.6228 14.0975 35.1785 16.0995 36.8088 18.3171C33.98 19.7454 31.1149 21.2611 28.2134 22.8644C26.7687 20.4229 25.431 18.1849 24.2002 16.1503L24.2063 16.1564ZM33.7217 11.7191C36.1228 10.9907 38.3886 10.4393 40.5193 10.065C42.1859 11.42 43.8788 12.9947 45.5979 14.7892C43.3986 15.5542 41.0298 16.4698 38.4915 17.5359C36.8209 15.3752 35.2289 13.4362 33.7157 11.7191H33.7217ZM41.6997 10.0039C43.4187 10.1138 43.4732 10.1199 44.7928 10.4922C46.0458 11.0293 47.2685 11.6641 48.4367 12.3905C49.5626 13.1595 49.6353 13.2206 50.9125 14.2643C49.7906 14.1463 48.4186 14.2155 46.7964 14.4718C45.0652 12.7587 43.3643 11.2694 41.6936 10.0039H41.6997ZM8.16561 41.9628C8.16561 41.9628 8.16561 41.9567 8.16561 41.9506C8.16561 41.9506 8.16561 41.9445 8.16561 41.9384C8.14745 41.8529 8.14745 41.8468 8.14745 41.7431C8.86575 43.916 9.73336 46.0828 10.7503 48.2435C10.6897 48.3004 10.6514 48.3411 10.6353 48.3655C9.5215 46.3025 8.70433 44.1479 8.16561 41.9628ZM8.21403 41.2548C8.75074 40.3067 9.57194 39.2263 10.6776 38.0137C11.7753 40.6179 12.998 43.2385 14.3458 45.8752C12.9576 46.7542 11.8479 47.4744 11.0166 48.0359C9.93513 45.7776 9.00295 43.5172 8.22009 41.2548H8.21403ZM11.5917 37.1531C13.4156 35.6312 15.4515 34.0321 17.6992 32.3556C19.1197 35.2162 20.6309 38.1134 22.233 41.0472C19.7673 42.5365 17.4974 43.918 15.4233 45.1916C14.027 42.4938 12.7518 39.8143 11.5977 37.1531H11.5917ZM19.2367 31.2874C21.9283 29.5052 24.7087 27.731 27.5778 25.965C29.2323 28.8541 30.9333 31.8144 32.6806 34.8459C29.6783 36.62 26.7506 38.3555 23.8976 40.0523C22.2632 37.0859 20.7116 34.1643 19.2427 31.2874H19.2367ZM29.3938 24.8908C32.3396 23.2387 35.239 21.6701 38.092 20.1849C39.8555 22.8868 41.617 25.6883 43.3764 28.5896C40.4991 30.258 37.5574 31.9731 34.551 33.735C32.7956 30.7117 31.0765 27.7636 29.3938 24.8908ZM39.793 19.367C42.3352 18.2154 44.7121 17.2124 46.9235 16.3579C48.6547 18.6813 50.3455 21.1248 51.996 23.6884C49.8774 24.8806 47.5691 26.1929 45.0712 27.6252C43.3158 24.7687 41.5584 22.016 39.799 19.367H39.793ZM48.1159 15.9794C49.7059 15.6051 51.0497 15.422 52.1473 15.4301C53.713 17.2327 55.2001 19.1574 56.6084 21.2042C55.7085 21.6558 54.5383 22.2764 53.0976 23.0658C51.4835 20.5836 49.8229 18.2215 48.1159 15.9794ZM52.5831 15.5888C52.6618 15.6437 52.6739 15.6498 52.7405 15.7048C52.7405 15.7048 52.7465 15.7048 52.7465 15.7109C54.3748 17.2551 55.8336 19.0374 57.0745 21.0272C57.0321 21.0272 57.0261 21.0272 56.9111 21.0638C55.5471 19.1106 54.1045 17.2836 52.5831 15.5827V15.5888ZM11.4887 49.8487C11.521 49.8487 11.5816 49.8426 11.6703 49.8304C13.0262 51.7714 14.4648 53.5903 15.9862 55.2871C15.9014 55.2322 15.8954 55.2261 15.8228 55.1711C15.8228 55.1711 15.8228 55.1711 15.8167 55.1711C15.8167 55.1711 15.8167 55.1711 15.8106 55.165C14.1824 53.6208 12.7296 51.8446 11.4887 49.8548V49.8487ZM11.9609 49.6778C12.8567 49.2221 14.031 48.6077 15.4838 47.8345C17.0899 50.3004 18.7545 52.6605 20.4776 54.9148C18.8755 55.281 17.5317 55.4662 16.4462 55.4702C14.8765 53.6676 13.3813 51.7368 11.9609 49.6778ZM16.5854 47.2058C18.7 46.0095 21.0062 44.6932 23.5041 43.2568C25.2555 46.1051 27.0169 48.8559 28.7885 51.5089C26.2381 52.6605 23.8572 53.6615 21.6458 54.5119C19.9146 52.1885 18.2278 49.7511 16.5854 47.1997V47.2058ZM25.1869 42.2924C28.056 40.62 30.9958 38.9028 34.0062 37.1409C35.7656 40.1602 37.4867 43.1062 39.1695 45.979C36.2317 47.6311 33.3343 49.2017 30.4773 50.691C28.7138 47.9892 26.9524 45.1916 25.1929 42.2985L25.1869 42.2924ZM35.8827 36.03C38.881 34.2518 41.8066 32.5082 44.6596 30.7992C46.298 33.7696 47.8516 36.6933 49.3205 39.5701C46.637 41.3443 43.8586 43.1204 40.9854 44.8987C39.3309 42.0136 37.63 39.0554 35.8827 36.0239V36.03ZM46.3303 29.8104C48.7959 28.3211 51.0638 26.9396 53.1339 25.666C54.5302 28.3597 55.8074 31.0372 56.9655 33.6984C55.1456 35.2203 53.1138 36.8153 50.8701 38.4837C49.4456 35.6353 47.9323 32.7442 46.3303 29.8104ZM54.2114 24.9824C55.5996 24.1034 56.7093 23.3812 57.5406 22.8155C58.614 25.0576 59.5462 27.3099 60.3371 29.5723C59.8044 30.5408 58.9853 31.6313 57.8796 32.8439C56.7819 30.2397 55.5592 27.6212 54.2114 24.9885V24.9824ZM57.8009 22.6141C57.8654 22.5612 57.9038 22.5205 57.9159 22.492C59.0296 24.5551 59.8468 26.7097 60.3855 28.9009C60.3855 28.9009 60.3855 28.907 60.3855 28.9131C60.4037 29.0047 60.4037 29.0169 60.4097 29.1145C59.6914 26.9416 58.8218 24.7769 57.8009 22.6202V22.6141ZM17.6689 56.636C18.7908 56.75 20.1568 56.6747 21.7669 56.4102C23.4981 58.1233 25.207 59.6146 26.8938 60.8842C25.1687 60.7743 25.1203 60.7743 23.7886 60.402C22.5417 59.871 21.3311 59.2423 20.1689 58.5221C19.0006 57.7286 18.9401 57.6798 17.6689 56.6421V56.636ZM22.9654 56.0867C25.1808 55.3258 27.5556 54.4082 30.0899 53.3339C31.7524 55.4906 33.3464 57.4275 34.8718 59.1446C32.4707 59.8771 30.1968 60.4305 28.05 60.8048C26.3955 59.458 24.7006 57.8852 22.9654 56.0867ZM31.7726 52.5527C34.5893 51.1244 37.4524 49.6026 40.3619 47.9871C41.8106 50.4286 43.1443 52.6686 44.363 54.7073C41.7118 56.107 39.0747 57.3888 36.4517 58.5526C34.9707 56.7703 33.413 54.7703 31.7787 52.5527H31.7726ZM42.1537 46.9312C44.9663 45.1733 47.6842 43.4033 50.3072 41.621C51.4209 44.1438 52.3854 46.4937 53.2005 48.6707C50.9004 50.4164 48.4953 52.1112 45.9853 53.7551C44.8311 51.6798 43.5539 49.4072 42.1537 46.9373V46.9312ZM51.8083 40.5223C53.9794 38.8174 55.9365 37.1877 57.6798 35.6333C58.382 38.0259 58.9086 40.2863 59.2597 42.4145C57.8876 44.1031 56.2977 45.8244 54.4898 47.5782C53.7473 45.4053 52.8555 43.0553 51.8144 40.5284L51.8083 40.5223ZM58.5393 34.736C59.5603 33.4339 60.2947 32.262 60.7427 31.2203C61.0151 32.8561 61.0272 32.9477 61.1422 34.3149C61.1966 35.7004 61.1422 37.0859 60.9908 38.4593C60.664 39.8021 60.6398 39.8509 59.8892 41.4135C59.6188 39.326 59.1689 37.1002 58.5393 34.736ZM25.9375 61.2016C26.8091 61.4152 26.912 61.4274 28.0924 61.5434C29.1153 61.9584 29.188 61.9951 30.0172 62.1965C28.6311 61.9706 27.2691 61.6349 25.9375 61.2016ZM29.2303 61.5373C31.3287 61.2565 33.5542 60.7967 35.9069 60.1578C37.1215 61.0856 38.203 61.7224 39.1513 62.0683C38.0255 62.2819 37.9407 62.3002 36.9964 62.4162C35.2652 62.5932 33.528 62.5871 31.8089 62.4284C30.6589 62.1721 30.6044 62.1477 29.2303 61.5373ZM37.4504 59.6085C40.0048 58.5221 42.5653 57.3095 45.1318 55.9707C45.9429 57.2484 46.5825 58.2494 47.0506 58.9737C44.8796 60.0358 42.6924 60.9554 40.4891 61.7326C39.6093 61.3135 38.5985 60.6055 37.4565 59.6085H37.4504ZM46.6995 55.043C49.1248 53.4357 51.433 51.7755 53.6242 50.0624C53.9188 51.5679 54.0298 52.809 53.9572 53.7856C52.2179 55.3319 50.3495 56.8029 48.352 58.1986C47.9727 57.4214 47.4219 56.3675 46.6995 55.0369V55.043ZM54.8349 49.0003C56.5459 47.2465 58.0369 45.5172 59.3081 43.8122C59.1689 45.2954 59.1628 45.3503 58.8117 46.51C58.1096 48.097 57.2621 49.6168 56.2634 51.0512C55.6823 51.8385 55.6339 51.9057 54.8954 52.7846C55.0608 51.7795 55.0407 50.5181 54.8349 49.0003ZM59.8831 42.7868C60.3492 41.7125 60.3916 41.621 60.6277 40.7604C60.3553 42.1337 59.98 43.4826 59.5018 44.801C59.7257 43.977 59.7439 43.8854 59.8831 42.7929V42.7868ZM41.6149 61.5312C43.4914 60.8679 45.3577 60.0846 47.214 59.1813C47.2382 59.1853 47.2524 59.1894 47.2564 59.1935C45.4344 60.2067 43.5459 60.9818 41.6149 61.5312ZM48.4489 58.4549C50.1397 57.2708 51.7377 56.0114 53.2429 54.6768C51.8204 56.105 50.2164 57.3929 48.4428 58.4977C48.4428 58.4977 48.461 58.4793 48.4489 58.4549ZM20.1325 12.3599C20.1325 12.3599 20.1325 12.366 20.1265 12.4027C18.4357 13.5868 16.8356 14.8462 15.3264 16.1808C16.7489 14.7526 18.3529 13.4647 20.1325 12.3599Z" fill="url(#paint1_radial_3492_44)"/>
<path d="M138.083 25.5195C137.387 24.4025 136.449 23.5968 135.256 23.1146C134.076 22.6324 132.46 22.3883 130.426 22.3883H122.061C120.148 22.4737 118.907 23.4076 118.398 25.1227L113.06 50.8253H118.871L121.122 39.9791H124.833C127.333 39.9791 129.04 39.9181 129.948 39.7899C131.515 39.5701 132.756 39.2467 133.682 38.8316C134.602 38.4165 135.468 37.794 136.267 36.9761C137.066 36.1582 137.744 35.0778 138.295 33.7167C138.846 32.3617 139.124 30.964 139.124 29.5296C139.124 27.9793 138.773 26.6426 138.089 25.5256L138.083 25.5195ZM132.423 32.8256C131.842 33.6801 131.025 34.3027 130.002 34.6872C128.979 35.0778 126.927 35.2671 123.87 35.2671H122.079L123.792 27.0637H127.944C129.833 27.0637 131.043 27.1614 131.588 27.3689C132.133 27.5703 132.55 27.8877 132.853 28.3272C133.156 28.7666 133.307 29.3282 133.307 30.0057C133.307 31.0311 133.011 31.965 132.423 32.8195V32.8256Z" fill="black"/>
<path d="M188.663 22.3883L184.716 41.4135L177.083 22.3883H174.753C172.876 22.4676 171.647 23.3771 171.115 25.0251L165.776 50.8192H171.181L175.14 31.7147L182.755 50.8192H188.166L194.05 22.3822H188.669L188.663 22.3883Z" fill="black"/>
<path d="M165.164 27.1431L166.145 22.3883H148.313C146.503 22.4676 145.286 23.3038 144.729 24.8481L139.838 48.4693C139.723 49.5375 140.413 50.7826 142.193 50.8253H161.381L162.38 46.0706H145.976L147.744 38.3494H162.344L163.324 33.5946H148.73L150.074 27.137H165.177L165.164 27.1431Z" fill="black"/>
<path d="M79.816 63.8933C80.2337 64.1497 80.8087 64.3389 81.4504 64.3389C82.3159 64.3389 83.1089 63.8689 83.1089 63.0205C83.1089 62.4956 82.7881 62.111 81.9891 61.7082C81.0085 61.226 80.4637 60.6645 80.4637 59.9076C80.4637 58.6503 81.6441 57.8446 83.0544 57.8446C83.805 57.8446 84.3619 58.046 84.6282 58.2108L84.2953 58.9188C84.0532 58.7845 83.575 58.5831 82.9636 58.5892C82.0193 58.5892 81.4443 59.163 81.4443 59.7367C81.4443 60.3044 81.8317 60.6339 82.6368 61.0368C83.581 61.5007 84.1016 62.0561 84.1016 62.9167C84.1016 64.1314 83.0605 65.0896 81.3353 65.0896C80.5666 65.0896 79.81 64.8577 79.4892 64.6013L79.8281 63.8933H79.816Z" fill="black"/>
<path d="M92.14 60.7194C92.14 61.934 91.6558 63.2829 90.7418 64.113C90.0638 64.7295 89.174 65.0957 88.1147 65.0957C86.1354 65.0957 85.2093 63.7285 85.2093 62.2392C85.2093 61.0063 85.7359 59.6329 86.6741 58.7967C87.3339 58.2108 88.2782 57.8446 89.2467 57.8446C91.3108 57.8446 92.1461 59.2179 92.1461 60.7255L92.14 60.7194ZM87.3642 59.2728C86.6257 59.9503 86.202 61.1833 86.202 62.166C86.202 63.3074 86.7528 64.3633 88.254 64.3633C88.9077 64.3633 89.5251 64.1069 90.0033 63.6614C90.7297 62.9961 91.1473 61.7326 91.1473 60.756C91.1473 59.7794 90.7902 58.5709 89.1135 58.5709C88.4356 58.5709 87.8302 58.8456 87.3642 59.2728Z" fill="black"/>
<path d="M94.1133 57.9544H95.0576L93.7501 64.229H96.8433L96.6859 64.9798H92.6545L94.1133 57.9544Z" fill="black"/>
<path d="M99.5611 57.9544L98.7016 62.1171C98.641 62.4101 98.6047 62.7092 98.6047 62.9961C98.6047 63.8994 99.1798 64.3511 100.033 64.3511C101.08 64.3511 101.843 63.7041 102.176 62.1232L103.048 57.9483H103.992L103.114 62.1477C102.672 64.2473 101.534 65.0835 99.9061 65.0835C98.641 65.0835 97.6665 64.4549 97.6665 63.0083C97.6665 62.7092 97.7028 62.3674 97.7694 62.0439L98.6229 57.9422H99.5672L99.5611 57.9544Z" fill="black"/>
<path d="M109.585 64.7478C109.149 64.9248 108.459 65.0835 107.594 65.0835C105.663 65.0835 104.482 63.9605 104.482 62.166C104.482 60.8415 105.063 59.5841 106.123 58.7784C106.916 58.1681 107.89 57.8385 109.016 57.8385C109.87 57.8385 110.481 58.0338 110.681 58.1742L110.378 58.87C110.093 58.7113 109.555 58.5831 108.871 58.5831C108.066 58.5831 107.267 58.87 106.673 59.3705C105.953 59.987 105.499 60.9758 105.499 62.0439C105.499 63.3013 106.129 64.3389 107.83 64.3389C108.411 64.3389 109.04 64.2351 109.47 64.0398L109.597 64.7478H109.585ZM107.951 64.9493L107.503 65.4986C107.878 65.584 108.114 65.8404 108.114 66.17C108.114 66.7682 107.497 67.0672 106.885 67.0672C106.571 67.0672 106.286 66.9879 106.135 66.878L106.341 66.4324C106.51 66.5301 106.71 66.585 106.916 66.585C107.176 66.585 107.418 66.463 107.418 66.2249C107.418 65.9991 107.17 65.8587 106.68 65.816L107.345 64.9493H107.957H107.951Z" fill="black"/>
<path d="M117.484 60.7194C117.484 61.934 117 63.2829 116.086 64.113C115.408 64.7295 114.518 65.0957 113.459 65.0957C111.48 65.0957 110.554 63.7285 110.554 62.2392C110.554 61.0063 111.08 59.6329 112.018 58.7967C112.678 58.2108 113.622 57.8446 114.591 57.8446C116.655 57.8446 117.49 59.2179 117.49 60.7255L117.484 60.7194ZM112.702 59.2728C111.964 59.9503 111.54 61.1833 111.54 62.166C111.54 63.3074 112.091 64.3633 113.592 64.3633C114.246 64.3633 114.863 64.1069 115.342 63.6614C116.068 62.9961 116.486 61.7326 116.486 60.756C116.486 59.7794 116.128 58.5709 114.452 58.5709C113.774 58.5709 113.168 58.8456 112.702 59.2728ZM113.386 57.5211C113.501 56.9046 113.846 56.4712 114.319 56.4712C114.627 56.4712 114.797 56.5628 115.003 56.6849C115.172 56.7886 115.329 56.8741 115.505 56.8741C115.693 56.8741 115.808 56.7459 115.898 56.4529H116.425C116.304 57.106 115.995 57.46 115.481 57.46C115.19 57.46 115.027 57.3807 114.803 57.2586C114.615 57.1548 114.5 57.0633 114.312 57.0694C114.137 57.0694 114.004 57.2403 113.925 57.5211H113.392H113.386Z" fill="black"/>
<path d="M122.411 61.6777H119.627L119.1 64.2412H122.242L122.085 64.9798H118.005L119.464 57.9544H123.374L123.217 58.693H120.257L119.784 60.9452H122.575L122.418 61.6777H122.411Z" fill="black"/>
<path d="M123.507 63.8933C123.925 64.1497 124.5 64.3389 125.141 64.3389C126.007 64.3389 126.8 63.8689 126.8 63.0205C126.8 62.4956 126.479 62.111 125.68 61.7082C124.7 61.226 124.155 60.6645 124.155 59.9076C124.155 58.6503 125.335 57.8446 126.746 57.8446C127.496 57.8446 128.053 58.046 128.313 58.2108L127.98 58.9188C127.738 58.7845 127.26 58.5831 126.649 58.5892C125.704 58.5892 125.129 59.163 125.129 59.7367C125.129 60.3044 125.517 60.6339 126.322 61.0368C127.266 61.5007 127.787 62.0561 127.787 62.9167C127.787 64.1314 126.746 65.0896 125.02 65.0896C124.252 65.0896 123.495 64.8577 123.174 64.6013L123.513 63.8933H123.507Z" fill="black"/>
<path d="M133.483 58.7052H131.243L131.406 57.9544H136.836L136.679 58.7052H134.427L133.132 64.9798H132.187L133.483 58.7052Z" fill="black"/>
<path d="M137.732 58.0582C138.198 57.9605 138.834 57.9056 139.403 57.9056C140.171 57.9056 140.825 58.0704 141.237 58.4122C141.594 58.693 141.806 59.0958 141.806 59.578C141.806 60.5973 140.952 61.3603 139.984 61.6105V61.635C140.516 61.7998 140.771 62.3247 140.825 63.0449C140.91 64.0215 140.964 64.6929 141.067 64.9798H140.093C140.05 64.8333 139.972 64.0947 139.917 63.2829C139.857 62.3125 139.469 61.9157 138.706 61.9157H137.871L137.236 64.9737H136.297L137.738 58.0521L137.732 58.0582ZM138.004 61.2443H138.852C140.05 61.2443 140.819 60.5302 140.819 59.6879C140.819 58.9371 140.202 58.5953 139.336 58.5953C138.961 58.5953 138.719 58.6258 138.543 58.6686L138.01 61.2382L138.004 61.2443Z" fill="black"/>
<path d="M144.675 57.9544L143.216 64.9798H142.272L143.73 57.9544H144.675Z" fill="black"/>
<path d="M146.412 58.0521C146.878 57.9666 147.435 57.9056 148.058 57.9056C148.851 57.9056 149.42 58.0521 149.826 58.3878C150.177 58.6503 150.377 59.0226 150.377 59.4804C150.377 60.3654 149.596 61.0246 148.724 61.2321V61.2565C149.414 61.4396 149.989 61.9707 149.983 62.813C149.983 63.5332 149.566 64.0947 149.063 64.4426C148.452 64.8577 147.61 65.0225 146.581 65.0225C145.922 65.0225 145.353 64.9859 144.996 64.9248L146.418 58.0521H146.412ZM146.049 64.2778C146.291 64.3145 146.569 64.3267 146.824 64.3267C147.943 64.3267 148.991 63.9055 148.991 62.7824C148.991 61.9585 148.228 61.5983 147.368 61.5983H146.6L146.049 64.284V64.2778ZM146.757 60.933H147.459C148.561 60.933 149.408 60.4081 149.408 59.5597C149.408 58.8822 148.851 58.5953 148.016 58.5953C147.671 58.5953 147.38 58.6197 147.229 58.6625L146.757 60.9391V60.933Z" fill="black"/>
<path d="M153.228 57.9544L152.362 62.1171C152.302 62.4101 152.265 62.7092 152.265 62.9961C152.265 63.8994 152.84 64.3511 153.694 64.3511C154.741 64.3511 155.504 63.7041 155.837 62.1232L156.708 57.9483H157.653L156.775 62.1477C156.333 64.2473 155.195 65.0835 153.567 65.0835C152.302 65.0835 151.327 64.4549 151.327 63.0083C151.327 62.7092 151.363 62.3674 151.43 62.0439L152.283 57.9422H153.228V57.9544Z" fill="black"/>
<path d="M160.576 58.7052H158.337L158.5 57.9544H163.93L163.772 58.7052H161.52L160.225 64.9798H159.281L160.576 58.7052Z" fill="black"/>
<path d="M164.305 62.7519L163.082 64.9737H162.089L166.054 57.9483H167.168L168.227 64.9737H167.259L166.95 62.7519H164.305ZM166.877 62.0683L166.581 60.0419C166.539 59.6757 166.484 59.163 166.448 58.7479H166.423C166.218 59.1691 166.03 59.6024 165.794 60.0297L164.65 62.0744H166.884L166.877 62.0683ZM168.451 56.3492L166.896 57.576H166.054L167.21 56.3492H168.445H168.451Z" fill="black"/>
<path d="M170.697 58.0582C171.163 57.9605 171.799 57.9056 172.368 57.9056C173.136 57.9056 173.79 58.0704 174.202 58.4122C174.559 58.693 174.771 59.0958 174.771 59.578C174.771 60.5973 173.917 61.3603 172.949 61.6105V61.635C173.481 61.7998 173.736 62.3247 173.79 63.0449C173.875 64.0215 173.929 64.6929 174.032 64.9798H173.058C173.015 64.8333 172.937 64.0947 172.882 63.2829C172.822 62.3125 172.434 61.9157 171.671 61.9157H170.836L170.201 64.9737H169.262L170.703 58.0521L170.697 58.0582ZM170.969 61.2443H171.817C173.015 61.2443 173.784 60.5302 173.784 59.6879C173.784 58.9371 173.167 58.5953 172.301 58.5953C171.926 58.5953 171.684 58.6258 171.508 58.6686L170.975 61.2382L170.969 61.2443Z" fill="black"/>
<path d="M177.64 57.9544L176.181 64.9798H175.237L176.695 57.9544H177.64Z" fill="black"/>
<path d="M179.498 62.7519L178.275 64.9737H177.283L181.247 57.9483H182.361L183.421 64.9737H182.452L182.143 62.7519H179.498ZM182.077 62.0683L181.78 60.0419C181.738 59.6757 181.683 59.163 181.647 58.7479H181.623C181.417 59.1691 181.229 59.6024 180.993 60.0297L179.849 62.0744H182.083L182.077 62.0683Z" fill="black"/>
<path d="M184.546 63.8933C184.964 64.1497 185.539 64.3389 186.181 64.3389C187.046 64.3389 187.839 63.8689 187.839 63.0205C187.839 62.4956 187.518 62.111 186.719 61.7082C185.739 61.226 185.194 60.6645 185.194 59.9076C185.194 58.6503 186.374 57.8446 187.785 57.8446C188.535 57.8446 189.092 58.046 189.352 58.2108L189.02 58.9188C188.777 58.7845 188.299 58.5831 187.688 58.5892C186.744 58.5892 186.169 59.163 186.169 59.7367C186.169 60.3044 186.556 60.6339 187.361 61.0368C188.305 61.5007 188.826 62.0561 188.826 62.9167C188.826 64.1314 187.785 65.0896 186.06 65.0896C185.291 65.0896 184.534 64.8577 184.213 64.6013L184.552 63.8933H184.546Z" fill="black"/>
<defs>
<radialGradient id="paint0_radial_3492_44" cx="0" cy="0" r="1" gradientUnits="userSpaceOnUse" gradientTransform="translate(26.9937 36.5) rotate(90) scale(36.5 26.9937)">
<stop stop-color="#0082C8"/>
<stop offset="1" stop-color="#003D7C"/>
</radialGradient>
<radialGradient id="paint1_radial_3492_44" cx="0" cy="0" r="1" gradientUnits="userSpaceOnUse" gradientTransform="translate(34.2786 35.4349) rotate(90) scale(27.1134 26.8841)">
<stop stop-color="#0086CC"/>
<stop offset="1" stop-color="#003D7C"/>
</radialGradient>
</defs>
</svg>
