<svg width="1147" height="1147" viewBox="0 0 1147 1147" fill="none" xmlns="http://www.w3.org/2000/svg">
<path d="M843.263 170.032C843.23 170.044 843.196 170.057 843.163 170.07C880.078 219.204 916.133 270.877 951.328 325.086C906.139 350.305 856.906 378.062 803.627 408.359C766.185 347.938 728.7 289.712 691.172 233.68C745.36 209.254 796.023 188.05 843.163 170.07C843.153 170.057 843.144 170.044 843.134 170.032H843.263Z" fill="#E4E4EC" />
<path d="M607.768 586.136C671.72 548.524 734.123 511.643 794.976 475.493V475.622C829.922 538.453 863.06 600.295 894.391 661.146C837.152 698.672 777.891 736.242 716.607 773.854C681.317 712.745 645.037 650.172 607.768 586.136Z" fill="#E4E4EC" />
<path d="M703.309 839.052C734.209 890.694 762.656 938.075 788.65 981.196H788.521C731.971 1010.89 675.722 1038 619.775 1062.53C588.186 1024.83 554.962 982.531 520.103 935.623C580.268 905.412 641.336 873.222 703.309 839.052Z" fill="#E4E4EC" />
<path d="M171.249 779.922C141.468 722.858 114.269 666.181 89.6523 609.891H89.5232C128.428 577.701 171.852 543.876 219.794 508.415C250.092 568.922 282.326 630.204 316.497 692.26C263.907 723.762 215.491 752.982 171.249 779.922Z" fill="#E4E4EC" />
<path d="M343.739 738.996C381.095 799.245 418.666 857.428 456.452 913.546V913.675C402.054 938.033 351.271 959.206 304.103 977.194C267.264 928.048 231.285 876.492 196.167 822.527C241.27 797.222 290.46 769.379 343.739 738.996Z" fill="#E4E4EC" />
<path d="M586.207 1075.06C534.993 1090.55 486.491 1102.25 440.7 1110.17C405.411 1081.68 369.26 1048.42 332.249 1010.37C379.503 994.279 430.157 974.87 484.21 952.148C519.672 997.765 553.671 1038.73 586.207 1075.06Z" fill="#E4E4EC" />
<path d="M561.676 71.9122C612.889 56.5057 661.219 44.8432 706.666 36.9248H706.795C742.343 65.586 778.45 98.8951 815.117 136.852C768.208 152.947 717.683 172.313 663.543 194.949C627.823 149.246 593.867 108.234 561.676 71.9122Z" fill="#E4E4EC" />
<path d="M74.5465 569.094C59.5698 518.055 48.3373 470.2 40.849 425.53C70.1998 389.553 104.199 353.059 142.845 316.049C158.511 362.269 177.49 412.017 199.783 465.294C153.475 501.271 111.73 535.871 74.5465 569.094Z" fill="#E4E4EC" />
<path d="M70.0277 628.095C93.4395 683.18 119.52 738.609 148.268 794.382H148.139C118.53 812.887 94.8597 828.121 77.1287 840.085C54.1473 792.316 34.2644 744.504 17.4802 696.65C28.9279 676.595 46.4437 653.744 70.0277 628.095Z" fill="#E4E4EC" />
<path d="M444.316 307.786C413.415 256.145 384.882 208.806 358.716 165.771L358.845 165.9C415.395 136.206 471.816 109.094 528.107 84.5644C559.61 122.263 592.791 164.609 627.651 211.603C567.314 241.728 506.202 273.789 444.316 307.786Z" fill="#E4E4EC" />
<path d="M231.931 442.184C208.175 388.735 187.646 338.987 170.346 292.939C219.235 256.274 270.491 220.598 324.115 185.912C348.904 229.721 376.189 277.791 405.97 330.122C345.805 367.304 287.792 404.658 231.931 442.184Z" fill="#E4E4EC" />
<path d="M705.891 1129.8C687.127 1120.93 665.566 1105.95 641.207 1084.87H641.078C695.562 1061.89 750.176 1036.24 804.918 1007.92C822.219 1034.95 835.861 1056.12 845.845 1071.44C799.538 1093.9 752.887 1113.36 705.891 1129.8Z" fill="#E4E4EC" />
<path d="M849.461 1075.83C850.235 1076.09 850.364 1076.09 850.364 1076.09C811.502 1097.52 771.091 1113.92 730.034 1125.54C770.058 1111.51 809.867 1094.94 849.461 1075.83Z" fill="#E4E4EC" />
<path d="M1130.4 435.342V435.6C1130.92 437.537 1130.92 437.795 1130.92 439.861C1115.6 393.899 1097.05 348.067 1075.27 302.364C1076.65 301.245 1077.47 300.384 1077.73 299.782C1101.61 343.419 1118.91 388.993 1130.4 435.342Z" fill="#E4E4EC" />
<path d="M1129.37 449.414C1118.01 469.899 1100.54 492.966 1076.95 518.614V518.485C1053.54 463.401 1027.46 408.015 998.711 352.327C1028.23 333.736 1051.9 318.459 1069.72 306.495C1092.62 353.92 1112.5 401.559 1129.37 449.414Z" fill="#E4E4EC" />
<path d="M27.4216 446.316C33.1024 490.9 42.6565 538.152 56.0839 588.073H55.9548C34.1784 615.185 18.4701 639.758 8.8299 661.791C3.14909 627.579 2.89086 625.771 0.437781 595.948C-0.724203 566.899 0.437792 537.851 3.79463 509.061C10.8764 480.606 11.4092 479.501 27.2921 446.584L27.4216 446.316Z" fill="#E4E4EC" />
<path d="M469.363 350.649C532.196 315.705 594.039 282.525 654.893 251.109C692.507 308.346 730.078 367.605 767.605 428.887C706.235 464.175 643.488 500.454 579.364 537.722C541.922 473.772 505.255 411.414 469.363 350.649Z" fill="#E4E4EC" />
<path d="M677.745 796.448C615.17 831.392 553.37 864.615 492.344 896.116L492.215 895.987C454.601 838.837 417.03 779.664 379.503 718.468C440.7 683.094 503.405 646.772 567.615 609.504C605.143 673.454 641.853 735.768 677.745 796.448Z" fill="#E4E4EC" />
<path d="M16.5765 711.497V711.239C16.1891 709.431 16.1891 709.302 16.1891 707.107C31.5101 753.068 50.0158 798.901 71.7061 844.604C70.415 845.723 69.5973 846.583 69.2531 847.186C45.4969 803.548 28.0672 758.104 16.5765 711.755V711.497Z" fill="#E4E4EC" />
<path d="M352.002 671.216C317.143 608.471 284.048 546.673 252.717 485.822H252.588C309.999 448.123 369.303 410.597 430.501 373.243C465.877 434.352 502.157 496.968 539.34 561.09C475.388 598.53 412.942 635.239 352.002 671.216Z" fill="#E4E4EC" />
<path d="M11.4121 460.646C17.3511 431.34 25.485 402.549 35.8137 374.534C30.7785 391.963 30.6494 393.899 27.6799 417.138C17.4802 440.248 16.5765 442.314 11.4121 460.646Z" fill="#E4E4EC" />
<path d="M50.4031 338.642C65.2507 305.463 83.1969 273.574 104.242 243.621C117.023 226.45 117.927 225.289 133.937 206.31C130.408 227.483 130.838 254.165 135.228 286.355C98.733 323.537 66.9291 360.117 39.8161 396.094C42.9147 364.076 43.0439 362.914 50.4031 338.642Z" fill="#E4E4EC" />
<path d="M967.466 156.476C1002.33 189.139 1033.44 226.709 1059.78 268.926C1058.75 268.926 1058.75 268.926 1056.29 269.83C1027.2 228.516 996.43 189.871 963.981 153.894L964.293 154.086C965.698 154.948 966.01 155.14 967.337 156.347L967.466 156.476Z" fill="#E4E4EC" />
<path d="M271.826 85.5973C271.912 85.6833 271.869 85.9846 271.696 86.501C235.632 111.547 201.504 138.186 169.313 166.417C199.653 136.206 233.867 108.965 271.826 85.5973Z" fill="#E4E4EC" />
<path d="M417.848 21.3031C377.738 35.2464 337.757 51.8579 297.906 71.1375L297.002 70.7502C336.122 49.3189 376.533 32.9225 417.848 21.3031Z" fill="#E4E4EC" />
<path d="M161.308 263.504C161.345 263.475 161.382 263.446 161.419 263.417C154.977 231.868 152.53 205.775 154.078 185.137C191.433 152.258 231.285 121.144 273.633 91.7943C281.982 108.061 293.731 130.354 308.88 158.671C257.363 192.383 208.21 227.299 161.419 263.417C161.425 263.446 161.431 263.475 161.437 263.504H161.308Z" fill="#E4E4EC" />
<path d="M875.67 1061.37C876.057 1060.98 875.799 1060.47 875.799 1060.47C911.863 1035.42 945.948 1008.78 978.053 980.551C947.584 1010.76 913.499 1038 875.67 1061.37Z" fill="#E4E4EC" />
<path d="M1138.02 484.272C1143.83 518.873 1144.09 520.938 1146.54 549.729C1147.7 579.035 1146.67 608.342 1143.31 637.391C1136.21 665.665 1135.82 666.826 1119.82 699.877C1114.05 655.637 1104.45 608.557 1091.02 558.637C1112.71 531.094 1128.38 506.306 1138.02 484.272Z" fill="#E4E4EC" />
<path d="M1135.57 686.063C1129.76 715.112 1121.75 743.644 1111.55 771.53V771.401C1116.46 753.972 1116.72 752.165 1119.69 728.926C1129.63 706.333 1130.4 704.267 1135.57 686.063Z" fill="#E4E4EC" />
<path d="M506.675 62.1002C452.191 84.9948 397.449 110.644 342.448 139.047V139.176C325.492 111.892 311.849 90.6754 301.521 75.5271C348.258 52.9768 394.953 33.5681 441.604 17.3009C460.368 26.08 482.059 41.0131 506.675 62.1002Z" fill="#E4E4EC" />
<path d="M1042.48 903.863C1030.21 920.388 1029.05 921.808 1013.3 940.529C1016.83 919.355 1016.4 892.674 1012.01 860.484C1048.5 823.388 1080.31 786.808 1107.42 750.745C1104.45 782.117 1104.32 783.279 1096.83 807.809C1081.86 841.376 1063.65 873.523 1042.48 903.863Z" fill="#E4E4EC" />
<path d="M838.486 988.297C838.504 988.329 838.521 988.361 838.538 988.392C890.249 954.405 939.465 919.3 986.187 883.077C992.471 914.923 994.838 941.174 993.288 961.831C956.277 994.451 916.425 1025.57 873.733 1055.17C865.651 1038.75 853.92 1016.49 838.538 988.392C838.521 988.404 838.504 988.415 838.486 988.426V988.297Z" fill="#E4E4EC" />
<path d="M1072.69 577.744C1087.67 628.267 1098.9 676.079 1106.39 721.18L1106.26 721.05C1077.08 756.769 1043.17 793.177 1004.52 830.273C988.769 784.398 969.747 734.693 947.454 681.157C993.762 645.18 1035.51 610.709 1072.69 577.744Z" fill="#E4E4EC" />
<path d="M439.022 1125.53L441.604 1125.79C463.424 1134.57 464.973 1135.35 482.661 1139.61C453.095 1134.96 424.045 1127.73 395.641 1118.56C413.577 1122.92 416.253 1123.2 439.022 1125.53Z" fill="#E4E4EC" />
<path d="M414.741 1111.64C379.342 1109.4 377.872 1109.3 349.808 1101.52V1101.39C323.211 1090.16 297.389 1076.86 272.6 1061.63C247.682 1044.85 246.262 1043.81 219.278 1021.86C243.206 1024.36 272.342 1022.77 306.685 1017.09C343.61 1053.41 380.062 1084.95 416.041 1111.72L414.741 1111.64Z" fill="#E4E4EC" />
<path d="M179.9 990.879H179.771L179.9 990.75L179.771 990.621C145.04 957.958 113.925 920.388 87.5866 878.3C88.4903 878.3 88.6195 878.3 91.3307 877.913C120.251 918.968 150.936 957.441 183.386 993.332C181.55 992.231 181.338 992.058 180.112 991.054L179.9 990.879Z" fill="#E4E4EC" />
<path d="M677.487 1136.9C653.344 1141.42 651.665 1141.67 631.524 1144.26C594.599 1147.87 557.415 1147.87 520.877 1144.51C496.367 1139.1 495.187 1138.58 465.95 1125.7L465.877 1125.66C510.549 1119.81 558.018 1110.09 608.284 1096.49C634.192 1116.11 657.26 1129.58 677.487 1136.9Z" fill="#E4E4EC" />
<path d="M172.54 835.696C206.797 887.94 242.303 937.86 279.056 985.457C244.799 993.117 216.136 997.033 193.069 997.205C159.587 959.077 127.697 918.236 97.3989 874.685C116.507 865.045 141.554 852.049 172.54 835.696Z" fill="#E4E4EC" />
<path d="M741.525 816.588C801.518 779.492 859.488 742.052 915.435 704.267V704.138C939.192 757.501 959.763 807.206 977.15 853.254C928.174 890.264 876.875 926.112 823.251 960.798C798.635 916.902 771.392 868.832 741.525 816.588Z" fill="#E4E4EC" />
<path d="M665.351 7.61804C694.788 12.3949 723.837 19.6248 752.112 28.7912V28.9203C733.133 24.2725 731.067 24.0143 706.407 21.5613C684.717 12.6531 682.91 12.0076 665.351 7.61804Z" fill="#E4E4EC" />
<path d="M840.681 130.138C840.718 130.133 840.755 130.127 840.792 130.121C803.873 93.8929 767.599 62.3972 731.971 35.6337L733.362 35.7267C768.672 38.088 770.16 38.1875 797.946 45.9621C824.672 57.3233 850.752 70.7502 875.67 86.1137C899.42 102.202 901.197 103.642 927.586 125.028L928.475 125.749C904.573 123.255 875.345 124.713 840.792 130.121C840.798 130.127 840.804 130.133 840.81 130.138H840.681Z" fill="#E4E4EC" />
<path d="M830.611 454.578C883.201 423.077 931.574 393.856 975.729 366.916C1005.51 423.895 1032.75 480.528 1057.46 536.818C1018.64 569.094 975.299 602.834 927.443 638.036C897.059 577.787 864.781 516.635 830.611 454.578Z" fill="#E4E4EC" />
<path d="M626.489 2.58295C651.665 8.13445 652.827 8.65087 681.618 21.5613C636.861 27.4141 589.348 37.0969 539.082 50.6099C513.174 30.986 490.106 17.5161 469.879 10.2001L471.573 9.8864C494.382 5.66199 496.682 5.23615 515.842 2.84117C552.767 -0.902863 589.822 -0.902873 626.489 2.58295Z" fill="#E4E4EC" />
<path d="M1049.84 272.541C1030.64 282.095 1005.68 295.22 974.955 311.918C940.612 259.415 905.193 209.452 868.698 162.027C902.697 154.109 931.359 150.236 954.685 150.408C988.081 188.537 1019.8 229.248 1049.84 272.541Z" fill="#E4E4EC" />
</svg>
