<svg width="27" height="32" viewBox="0 0 27 32" fill="none" xmlns="http://www.w3.org/2000/svg">
<path fill-rule="evenodd" clip-rule="evenodd" d="M5.24514 0L6.59984 3.36856C2.61856 6.05753 0 10.614 0 15.7833C0 24.0482 6.69336 30.7505 14.9472 30.7505C17.4027 30.7505 19.7167 30.1565 21.7608 29.1077L23.8316 32L21.6379 27.2428C19.6739 28.396 17.3867 29.0569 14.9472 29.0569C7.62589 29.0569 1.69138 23.1117 1.69138 15.7833C1.69138 10.9485 4.2752 6.71572 8.13624 4.39599L5.24514 0Z" fill="#173468"/>
<path fill-rule="evenodd" clip-rule="evenodd" d="M11.9106 4.08828C11.0823 4.37724 10.2548 4.7215 9.4283 5.12105C9.4283 5.12105 9.42029 5.11035 9.4096 5.11302C10.2192 4.66888 11.0556 4.32908 11.9106 4.08828ZM4.00414 11.4087C3.90261 11.7699 3.89726 11.8073 3.83581 12.2916C3.62472 12.7732 3.60601 12.8134 3.49913 13.1933C3.62205 12.5859 3.79038 11.9893 4.00414 11.4087ZM5.4203 8.69563C5.68483 8.33978 5.70353 8.3157 6.03486 7.92239C5.96183 8.36297 5.97073 8.91592 6.06158 9.58125C5.3063 10.35 4.64809 11.1081 4.08697 11.8555C4.1511 11.192 4.15377 11.1679 4.30608 10.6649C4.61336 9.97724 4.98477 9.31637 5.4203 8.69563ZM6.45169 7.48359C7.22658 6.80043 8.05133 6.15561 8.92597 5.54914C9.10054 5.88627 9.34369 6.34825 9.65542 6.9351C8.58841 7.63432 7.57037 8.35851 6.60133 9.10767C6.46773 8.45305 6.41696 7.91169 6.44902 7.48359H6.45169ZM9.50312 5.20935C10.4704 4.74201 11.4368 4.33978 12.4022 4.00266C12.7906 4.1846 13.2395 4.49407 13.7489 4.93108C12.6213 5.40556 11.4884 5.9371 10.3501 6.52573C9.99922 5.96029 9.71688 5.5206 9.50312 5.20667V5.20935ZM12.9874 3.85818C13.4924 3.76453 13.5325 3.7565 13.9386 3.70567C14.7028 3.63075 15.4697 3.62807 16.2285 3.70032C16.7496 3.81537 16.771 3.82339 17.3695 4.09363C16.4432 4.21492 15.4599 4.41559 14.4196 4.69563C13.8852 4.28894 13.4078 4.00979 12.9874 3.85818ZM18.8284 4.24346C18.4383 4.14714 18.3955 4.14179 17.8825 4.09095C17.4336 3.90634 17.3962 3.89296 17.0301 3.80199C17.6394 3.90366 18.2406 4.05082 18.8257 4.24078L18.8284 4.24346ZM3.43768 17.5866V17.5893V17.5839V17.5866ZM3.34149 14.1966C3.48845 13.6027 3.49913 13.5839 3.83046 12.8963C3.94803 13.8203 4.14576 14.7995 4.42365 15.8341C3.97297 16.396 3.64787 16.9052 3.44837 17.3619C3.3308 16.6528 3.32278 16.6154 3.27469 15.9973C3.25064 15.3953 3.27469 14.7933 3.34416 14.1966H3.34149ZM4.10835 12.4655C4.71578 11.7199 5.41941 10.9636 6.21923 10.1966C6.54343 11.1545 6.93622 12.1855 7.39758 13.2896C6.43923 14.0352 5.57528 14.7523 4.80574 15.4408C4.49579 14.3848 4.26333 13.3931 4.10835 12.4655ZM6.78837 9.71771C7.80016 8.95784 8.86095 8.21849 9.97072 7.49965C10.4837 8.40756 11.0484 9.40377 11.6648 10.4883C10.4196 11.2606 9.219 12.0348 8.06291 12.8107C7.57126 11.703 7.14642 10.672 6.78837 9.71771ZM10.6868 7.08226C11.8572 6.46865 13.0248 5.90678 14.1898 5.39664C14.8436 6.17969 15.5303 7.05728 16.2499 8.02941C15.0012 8.6555 13.7365 9.31994 12.4557 10.0227C11.818 8.95249 11.2275 7.97144 10.6841 7.07958L10.6868 7.08226ZM14.8872 5.1371C15.9471 4.81782 16.9473 4.57612 17.8879 4.41202C18.6236 5.006 19.3708 5.6963 20.1297 6.48292C19.1588 6.81826 18.1132 7.2196 16.9927 7.68694C16.2553 6.73978 15.5525 5.88984 14.8845 5.1371H14.8872ZM18.4089 4.38527C19.1677 4.43343 19.1918 4.4361 19.7743 4.59931C20.3274 4.83476 20.8671 5.11302 21.3828 5.43142C21.8798 5.76854 21.9119 5.7953 22.4757 6.25282C21.9805 6.2011 21.3748 6.23142 20.6587 6.34379C19.8945 5.59285 19.1437 4.94 18.4062 4.38527H18.4089ZM3.60601 18.3946C3.60601 18.3946 3.60601 18.392 3.60601 18.3893C3.60601 18.3893 3.60601 18.3866 3.60601 18.3839C3.598 18.3465 3.598 18.3438 3.598 18.2983C3.91507 19.2508 4.29806 20.2006 4.74696 21.1478C4.72024 21.1728 4.70332 21.1906 4.69619 21.2013C4.20454 20.297 3.84382 19.3525 3.60601 18.3946ZM3.62739 18.0843C3.86431 17.6687 4.22681 17.1951 4.71489 16.6635C5.19942 17.8051 5.73916 18.9538 6.33413 20.1097C5.72135 20.495 5.23148 20.8107 4.86453 21.0568C4.38713 20.0669 3.97564 19.076 3.63006 18.0843H3.62739ZM5.11837 16.2863C5.92353 15.6192 6.82221 14.9182 7.81442 14.1833C8.44144 15.4372 9.10855 16.7072 9.81574 17.9933C8.72735 18.6461 7.72535 19.2517 6.80974 19.81C6.1934 18.6274 5.6305 17.4528 5.12104 16.2863H5.11837ZM8.4931 13.715C9.68125 12.9338 10.9086 12.1561 12.1751 11.3819C12.9055 12.6484 13.6563 13.946 14.4276 15.2749C13.1023 16.0526 11.8099 16.8134 10.5505 17.5572C9.8291 16.2568 9.14418 14.9761 8.49578 13.715H8.4931ZM12.9767 10.911C14.2771 10.1868 15.557 9.4992 16.8164 8.84814C17.5948 10.0325 18.3724 11.2606 19.149 12.5324C17.879 13.2637 16.5804 14.0156 15.2533 14.7879C14.4784 13.4626 13.7195 12.1703 12.9767 10.911ZM17.5672 8.48961C18.6895 7.98482 19.7387 7.54513 20.7148 7.17055C21.479 8.18906 22.2254 9.26018 22.954 10.3839C22.0188 10.9066 20.9999 11.4818 19.8972 12.1097C19.1223 10.8575 18.3466 9.65082 17.5699 8.48961H17.5672ZM21.2412 7.00466C21.9431 6.84056 22.5363 6.76029 23.0208 6.76386C23.7119 7.55405 24.3684 8.39775 24.99 9.29496C24.5928 9.49296 24.0762 9.76498 23.4403 10.111C22.7277 9.02295 21.9947 7.98749 21.2412 7.00466ZM23.2132 6.83343C23.2479 6.85751 23.2532 6.86018 23.2826 6.88426C23.2826 6.88426 23.2853 6.88426 23.2853 6.88694C24.0041 7.56386 24.648 8.34513 25.1958 9.21737C25.1771 9.21737 25.1744 9.21737 25.1236 9.23343C24.5215 8.37724 23.8847 7.57635 23.2132 6.83075V6.83343ZM5.07294 21.8515C5.08719 21.8515 5.11391 21.8488 5.1531 21.8435C5.75163 22.6943 6.38668 23.4916 7.05824 24.2354C7.02083 24.2114 7.01816 24.2087 6.98609 24.1846C6.98609 24.1846 6.98609 24.1846 6.98342 24.1846C6.98342 24.1846 6.98342 24.1846 6.98075 24.1819C6.26198 23.505 5.6207 22.7264 5.07294 21.8542V21.8515ZM5.28136 21.7766C5.67681 21.5768 6.19518 21.3074 6.83646 20.9685C7.54543 22.0495 8.28023 23.084 9.04086 24.0722C8.33367 24.2328 7.74049 24.3139 7.26131 24.3157C6.56837 23.5255 5.90839 22.6791 5.28136 21.7766ZM7.32277 20.693C8.25619 20.1685 9.27422 19.5915 10.3769 18.9619C11.15 20.2105 11.9275 21.4163 12.7095 22.5792C11.5837 23.084 10.5327 23.5228 9.55656 23.8956C8.79237 22.8771 8.04777 21.8087 7.32277 20.6903V20.693ZM11.1197 18.5391C12.3862 17.806 13.6839 17.0533 15.0128 16.2809C15.7894 17.6044 16.5492 18.8959 17.292 20.1552C15.9952 20.8794 14.7162 21.5679 13.455 22.2207C12.6766 21.0363 11.899 19.81 11.1224 18.5418L11.1197 18.5391ZM15.8411 15.794C17.1646 15.0145 18.4561 14.2501 19.7155 13.501C20.4387 14.8031 21.1245 16.0847 21.773 17.3458C20.5884 18.1235 19.3619 18.9021 18.0936 19.6816C17.3633 18.4169 16.6124 17.1202 15.8411 15.7913V15.794ZM20.453 13.0675C21.5414 12.4147 22.5425 11.8091 23.4563 11.2508C24.0727 12.4316 24.6364 13.6053 25.1477 14.7719C24.3443 15.439 23.4474 16.1382 22.457 16.8695C21.8282 15.6209 21.1602 14.3536 20.453 13.0675ZM23.9319 10.9512C24.5447 10.5659 25.0346 10.2493 25.4015 10.0013C25.8754 10.9842 26.2869 11.9714 26.636 12.9632C26.4009 13.3877 26.0392 13.8658 25.5512 14.3973C25.0666 13.2557 24.5269 12.1079 23.9319 10.9538V10.9512ZM25.5164 9.91302C25.5449 9.88984 25.5618 9.872 25.5672 9.85951C26.0588 10.7639 26.4196 11.7083 26.6574 12.6689C26.6574 12.6689 26.6574 12.6716 26.6574 12.6742C26.6654 12.7144 26.6654 12.7197 26.6681 12.7625C26.351 11.81 25.9671 10.8611 25.5164 9.9157V9.91302ZM7.80106 24.8267C8.29627 24.8767 8.89925 24.8437 9.61 24.7277C10.3742 25.4787 11.1286 26.1324 11.8732 26.6889C11.1117 26.6408 11.0903 26.6408 10.5024 26.4776C9.95202 26.2448 9.41762 25.9692 8.90459 25.6535C8.3889 25.3057 8.36218 25.2843 7.80106 24.8294V24.8267ZM10.1391 24.5859C11.117 24.2524 12.1653 23.8501 13.284 23.3792C14.0179 24.3246 14.7215 25.1737 15.3949 25.9264C14.335 26.2475 13.3312 26.4901 12.3835 26.6542C11.6532 26.0637 10.905 25.3743 10.1391 24.5859ZM14.0268 23.0368C15.2702 22.4107 16.534 21.7436 17.8184 21.0354C18.4579 22.1057 19.0466 23.0876 19.5846 23.9812C18.4142 24.5949 17.2501 25.1567 16.0923 25.6669C15.4385 24.8856 14.7509 24.0089 14.0295 23.0368H14.0268ZM18.6093 20.5726C19.8509 19.802 21.0506 19.0261 22.2085 18.2448C22.7001 19.3507 23.1259 20.3808 23.4857 21.3351C22.4703 22.1003 21.4087 22.8432 20.3007 23.5639C19.7912 22.6542 19.2274 21.658 18.6093 20.5752V20.5726ZM22.8711 17.7632C23.8295 17.0158 24.6934 16.3014 25.463 15.62C25.7729 16.6689 26.0054 17.6597 26.1604 18.5926C25.5547 19.3329 24.8529 20.0874 24.0548 20.8562C23.7271 19.9037 23.3334 18.8736 22.8738 17.7659L22.8711 17.7632ZM25.8424 15.2267C26.2931 14.6559 26.6173 14.1422 26.815 13.6856C26.9353 14.4027 26.9406 14.4428 26.9914 15.0421C27.0154 15.6495 26.9914 16.2568 26.9246 16.8588C26.7803 17.4475 26.7696 17.4689 26.4383 18.1538C26.3189 17.2388 26.1203 16.2631 25.8424 15.2267ZM11.451 26.8281C11.8358 26.9217 11.8812 26.9271 12.4022 26.9779C12.8538 27.1598 12.8859 27.1759 13.2519 27.2642C12.6401 27.1652 12.0388 27.018 11.451 26.8281ZM12.9046 26.9752C13.8309 26.8522 14.8133 26.6506 15.8518 26.3705C16.388 26.7772 16.8654 27.0564 17.284 27.208C16.787 27.3017 16.7496 27.3097 16.3328 27.3605C15.5686 27.4381 14.8017 27.4354 14.0429 27.3659C13.5352 27.2535 13.5111 27.2428 12.9046 26.9752ZM16.5332 26.1297C17.6607 25.6535 18.791 25.1219 19.9239 24.5351C20.282 25.0952 20.5643 25.534 20.771 25.8515C19.8126 26.317 18.8471 26.7202 17.8745 27.0608C17.4862 26.8771 17.0399 26.5668 16.5358 26.1297H16.5332ZM20.616 24.1284C21.6866 23.4238 22.7055 22.6961 23.6727 21.9451C23.8028 22.6051 23.8518 23.1491 23.8197 23.5772C23.0519 24.2551 22.2272 24.8999 21.3454 25.5117C21.178 25.171 20.9348 24.709 20.616 24.1257V24.1284ZM24.2071 21.4796C24.9624 20.7108 25.6206 19.9527 26.1818 19.2053C26.1203 19.8555 26.1176 19.8796 25.9627 20.3879C25.6527 21.0836 25.2786 21.7498 24.8377 22.3786C24.5812 22.7237 24.5598 22.7532 24.2339 23.1384C24.3069 22.6979 24.298 22.1449 24.2071 21.4796ZM26.4356 18.7558C26.6413 18.2849 26.66 18.2448 26.7642 17.8675C26.644 18.4695 26.4783 19.0609 26.2673 19.6388C26.3661 19.2776 26.3741 19.2374 26.4356 18.7585V18.7558ZM18.3715 26.9726C19.1998 26.6818 20.0237 26.3384 20.8431 25.9425C20.8538 25.9442 20.86 25.946 20.8618 25.9478C20.0575 26.392 19.2239 26.7318 18.3715 26.9726ZM21.3882 25.6241C22.1346 25.105 22.84 24.5529 23.5044 23.9679C22.8765 24.594 22.1684 25.1585 21.3855 25.6428C21.3855 25.6428 21.3935 25.6348 21.3882 25.6241ZM8.88856 5.41804C8.88856 5.41804 8.88856 5.42072 8.88589 5.43677C8.13951 5.95583 7.43321 6.5079 6.76699 7.09296C7.39491 6.46687 8.10299 5.90232 8.88856 5.41804Z" fill="#173468"/>
</svg>
