<svg width="238" height="66" viewBox="0 0 238 66" fill="none" xmlns="http://www.w3.org/2000/svg">
<g clip-path="url(#clip0_3252_291)">
<path fill-rule="evenodd" clip-rule="evenodd" d="M11.3379 64.2662C10.8497 63.8026 11.2244 63.3325 11.3777 62.9133C13.2853 57.7304 15.2157 52.5538 17.129 47.3708C17.2993 46.9072 17.4072 46.4117 17.5434 45.9354C17.5888 45.1414 18.0374 44.5253 18.2929 43.8203C19.5362 40.384 20.808 36.9605 22.0797 33.5369C22.2217 33.1622 22.3863 32.8192 22.6248 32.5143C25.1683 26.6518 31.0956 23.6157 36.9661 25.7244C37.1478 25.7879 37.3181 25.9023 37.4941 25.9912C37.8915 26.6327 37.4941 27.1726 37.2954 27.7188C36.7049 29.3258 36.069 30.9137 35.5297 32.5461C33.8151 36.8017 32.3333 41.1716 30.7038 45.4717C30.5903 45.7829 30.5108 46.1005 30.4086 46.4181C29.0801 49.848 27.814 53.316 26.5366 56.7713C24.8049 61.4588 21.7107 64.298 17.2596 65.0538C15.2838 65.3905 13.2285 65.2698 11.3323 64.2726L11.3379 64.2662Z" fill="#CAA624"/>
<path fill-rule="evenodd" clip-rule="evenodd" d="M66.1938 29.2997C65.9269 29.0393 66.0291 28.6899 66.0291 28.3787C66.0178 19.4991 66.0121 10.6131 65.9894 1.73354C65.9894 1.05391 66.1597 0.761735 66.8126 0.761735C71.8883 0.774438 76.9639 0.755383 82.0396 0.736328C82.7834 0.736328 83.0956 1.11108 83.0786 1.93679C83.0559 3.13725 83.0389 4.34407 83.0843 5.53818C83.1183 6.37659 82.8004 6.59255 82.1077 6.5862C79.5075 6.55444 76.9015 6.5989 74.3012 6.56079C73.4439 6.54809 73.1487 6.85297 73.2622 7.85018C73.3815 8.9236 73.4269 10.0415 73.2225 11.1086C73.0578 11.9787 73.336 12.2138 74.0628 12.2074C76.4359 12.182 78.8148 12.1947 81.188 12.2074C81.54 12.2074 81.8977 12.2646 82.2497 12.2963C82.4938 12.6203 82.5449 13.0014 82.5336 13.4079C82.5336 14.4622 82.5336 15.5166 82.5336 16.571C82.5449 16.914 82.5279 17.2506 82.3859 17.5682C82.0396 18.1017 81.5173 17.9874 81.0461 17.9874C78.7694 18.0001 76.4927 17.9874 74.2217 18.0065C73.8243 18.0065 73.3474 17.8477 73.1146 18.432C73.0408 19.3721 73.0862 20.3121 73.0862 21.2522C73.1487 23.9008 73.3077 26.5494 73.0011 29.1917C72.7285 29.5855 72.3254 29.5728 71.9451 29.5855C70.4348 29.6236 68.919 29.5728 67.4031 29.6046C66.9773 29.6109 66.5628 29.5538 66.1938 29.3061V29.2997Z" fill="#237B8F"/>
<path fill-rule="evenodd" clip-rule="evenodd" d="M148.5 65.2246C147.893 64.9896 148.086 64.4116 148.069 63.9289C148.052 63.4589 148.074 62.9825 148.08 62.5125C147.904 62.1123 147.728 62.233 147.501 62.4807C147.013 63.0079 146.593 63.6113 146.013 64.0305C143.169 66.0885 140.245 65.9995 137.259 64.4561C135.902 63.6431 135.277 62.2013 134.761 60.6959C134.301 59.3557 134.182 57.9393 134.182 56.5102C134.182 52.6484 134.199 48.7929 134.165 44.9311C134.159 44.1245 134.352 43.845 135.096 43.8767C136.691 43.9339 138.286 43.9276 139.882 43.8767C140.66 43.8577 140.915 44.2197 140.909 45.0391C140.892 47.9545 140.909 50.8636 140.909 53.779C140.909 54.8333 141.085 55.8687 141.25 56.904C141.46 58.2251 142.107 59.0826 143.311 59.3367C144.503 59.5844 145.491 59.1779 146.269 58.1362C147.319 56.7198 147.404 54.9794 147.45 53.2835C147.524 50.5206 147.495 47.7512 147.45 44.9883C147.438 44.1435 147.632 43.8386 148.426 43.8704C150.016 43.9339 151.617 43.8831 153.212 43.8894C153.553 43.8894 153.956 43.7751 154.11 44.3087C154.223 47.6242 154.138 50.9334 154.155 54.249C154.172 57.4566 154.161 60.6578 154.155 63.8654C154.155 65.2119 154.149 65.2119 152.991 65.2119C151.492 65.2119 149.993 65.2119 148.5 65.2119V65.2246Z" fill="#237B8F"/>
<path fill-rule="evenodd" clip-rule="evenodd" d="M13.2229 25.3621C12.7119 24.9874 13.0128 24.5428 13.1547 24.1299C13.6373 22.7262 14.2902 21.3987 14.6139 19.9251C14.5173 19.2074 14.9942 18.7247 15.21 18.1403C16.5442 14.6088 17.7478 11.0138 19.1842 7.53306C19.3318 7.17101 19.4511 6.79627 19.7349 6.5295C22.1706 2.24848 25.6395 0.00635165 30.1985 0C31.5668 0 32.9067 0.304879 34.1671 0.940044C34.5191 1.33385 34.3317 1.7467 34.1785 2.14686C33.6107 3.64585 33.077 5.16389 32.4979 6.65653C30.8344 10.8486 29.4548 15.1741 27.7118 19.3281C26.0256 23.0184 23.2947 25.1525 19.7122 25.9655C17.5094 26.4673 15.3349 26.2895 13.2229 25.3685V25.3621Z" fill="#CAA624"/>
<path fill-rule="evenodd" clip-rule="evenodd" d="M27.5244 19.2202C29.1084 14.9963 30.6981 10.7725 32.2821 6.54864C33.236 6.25647 34.1955 6.45972 35.1493 6.49783C41.2185 6.46607 47.2877 6.42796 53.357 6.3962C53.743 6.3962 54.1404 6.3708 54.5038 6.56135C54.8445 7.44423 54.7252 8.35251 54.6003 9.25445C54.3619 10.728 53.8055 12.0682 53.1753 13.3767C53.1355 13.4719 53.0844 13.5609 53.022 13.6434C52.1079 15.0217 51.1087 16.3111 49.8994 17.3782C49.6893 17.6069 49.4508 17.7784 49.184 17.9117C48.1223 18.5024 47.072 19.1249 45.8911 19.3853C43.6371 19.8808 41.3548 19.5949 39.0894 19.6394C35.5126 19.7093 31.9415 19.5759 28.3647 19.7029C28.024 19.7156 27.6209 19.7728 27.5187 19.2202H27.5244Z" fill="#237B8F"/>
<path fill-rule="evenodd" clip-rule="evenodd" d="M72.28 53.9187C72.28 50.5714 72.2516 47.2177 72.297 43.8704C72.3084 42.9367 72.1097 42.5683 71.2183 42.6191C69.8557 42.6953 68.4875 42.6191 67.1192 42.6445C66.3414 42.6636 65.9723 42.3269 65.9894 41.4313C66.0121 40.0848 66.0234 38.7382 65.9894 37.3917C65.9667 36.6549 66.2335 36.4707 66.8467 36.4707C72.7683 36.4898 78.6899 36.4898 84.6115 36.4707C85.412 36.4707 85.8322 36.7946 85.8151 37.741C85.7924 39.0114 85.7867 40.288 85.8151 41.5647C85.8322 42.3777 85.4972 42.6509 84.8102 42.6382C83.3795 42.6064 81.9488 42.6699 80.518 42.6191C79.6551 42.5873 79.3542 43.0129 79.3655 43.9148C79.428 50.7556 79.2406 57.5963 79.4677 64.4307C79.4847 65.0087 79.3031 65.3517 78.7637 65.3517C76.8788 65.3517 74.9882 65.358 73.1032 65.3517C72.3141 65.3517 72.28 64.7292 72.28 64.0623C72.2857 60.6768 72.28 57.2914 72.28 53.906V53.9187Z" fill="#237B8F"/>
<path fill-rule="evenodd" clip-rule="evenodd" d="M167.071 60.2965C167.883 60.722 168.729 60.6204 169.558 60.4044C170.069 60.2711 170.285 60.468 170.41 60.9761C170.728 62.2655 170.597 63.5739 170.591 64.8824C170.591 65.3714 170.279 65.5239 169.882 65.6065C167.792 66.0257 165.714 66.2353 163.619 65.5874C161.683 64.9903 160.349 63.701 159.685 61.5795C159.242 60.1567 159.049 58.6895 159.049 57.1842C159.049 54.9293 159.026 52.6681 159.06 50.4133C159.072 49.6511 158.833 49.3589 158.158 49.4097C157.51 49.4542 156.857 49.4034 156.205 49.4161C155.631 49.4288 155.364 49.1239 155.37 48.4951C155.37 47.2184 155.387 45.9481 155.37 44.6714C155.359 44.0299 155.642 43.8711 156.153 43.8902C156.999 43.9219 157.845 43.8711 158.691 43.9029C159.236 43.9219 159.446 43.6996 159.429 43.0835C159.401 41.991 159.452 40.8985 159.412 39.806C159.39 39.1772 159.639 38.8851 160.133 38.7009C161.678 38.1356 163.211 37.5449 164.755 36.9732C165.606 36.662 165.896 36.8843 165.913 37.8942C165.936 39.5329 165.964 41.1717 165.907 42.8104C165.879 43.6996 166.174 43.9664 166.924 43.9092C167.701 43.852 168.485 43.8965 169.268 43.8965C169.592 43.8965 169.921 43.8521 170.165 44.176C170.625 45.6623 170.347 47.1867 170.33 48.692C170.324 49.2637 169.831 49.3716 169.371 49.3716C168.428 49.3716 167.486 49.3716 166.543 49.3716C166.095 49.3716 165.777 49.4987 165.788 50.0957C165.834 52.7444 165.669 55.3993 165.89 58.048C165.97 58.988 166.299 59.801 167.077 60.2965H167.071Z" fill="#237B8F"/>
<path fill-rule="evenodd" clip-rule="evenodd" d="M22.619 32.5137C21.58 35.8928 20.2515 39.1384 19.0309 42.4349C18.5937 43.6291 18.3212 44.9184 17.5377 45.9347C12.1327 45.9347 6.73343 45.9284 1.32847 45.922C0.113485 45.922 -0.107937 45.6425 0.0226455 44.3277C0.624458 38.2492 4.66115 33.4982 10.0207 32.5899C10.4068 32.5264 10.7985 32.5391 11.1902 32.5391C14.9998 32.5327 18.8038 32.5264 22.6133 32.52L22.619 32.5137Z" fill="#237B8F"/>
<path fill-rule="evenodd" clip-rule="evenodd" d="M30.4995 45.4458C32.038 41.1012 33.5653 36.744 35.3253 32.5011C35.5411 32.355 35.7568 32.3423 35.9725 32.5011C41.3718 32.5011 46.7711 32.4947 52.1704 32.5011C52.5054 32.5011 52.9028 32.355 53.1469 32.7869C53.3967 35.0036 52.8006 37.0235 51.8922 38.9226C50.5182 41.7999 48.3608 43.7181 45.7094 44.9821C44.8919 45.3822 44.0402 45.5918 43.1489 45.6554C39.203 45.6681 35.2629 45.6554 31.317 45.6617C31.0275 45.6617 30.7265 45.7379 30.5051 45.4458H30.4995Z" fill="#237B8F"/>
<path fill-rule="evenodd" clip-rule="evenodd" d="M114.679 23.3742C117.092 25.0192 119.517 24.6127 121.935 23.3869C122.463 24.4666 122.299 25.648 122.304 26.7977C122.327 29.2113 122.333 29.3066 120.198 29.7322C116.621 30.4435 113.101 30.4118 109.922 28.0236C109.104 27.4075 108.491 26.5627 107.821 25.7751C103.194 19.4869 106.578 9.19727 113.731 7.85708C116.519 7.33624 119.278 7.39976 121.924 8.69549C122.367 9.95312 121.918 11.198 121.81 12.4239C121.663 14.1007 121.538 14.1135 120.124 13.491C118.966 12.9765 117.768 12.9384 116.593 13.2052C114.441 13.6942 113.215 15.3711 112.823 17.6577C112.442 19.8871 113.033 21.8942 114.685 23.3805L114.679 23.3742Z" fill="#237B8F"/>
<path fill-rule="evenodd" clip-rule="evenodd" d="M86.8144 64.9009C86.7916 64.2848 86.7405 63.6687 86.7405 63.059C86.7405 57.0566 86.7519 51.048 86.7178 45.0457C86.7178 44.1628 86.8995 43.8262 87.7398 43.877C89.0059 43.9532 90.2719 43.896 91.5437 43.896C92.7587 43.896 92.8268 43.9722 92.8438 45.2997C92.8438 45.6999 92.8438 46.1 92.8438 46.7987C94.7969 43.8579 97.1133 42.4796 100.219 43.7118C100.366 45.5602 100.151 47.3894 100.003 49.2251C99.952 49.892 99.4297 49.8412 99.0153 49.7904C95.5406 49.3775 93.4343 51.4481 93.4002 55.3798C93.3718 58.219 93.3775 61.0645 93.4059 63.9037C93.4173 64.7803 93.1731 65.1614 92.3442 65.1296C90.817 65.0788 89.2841 65.1169 87.7511 65.1169C87.4275 65.1169 87.0982 65.1423 86.8144 64.9073V64.9009Z" fill="#237B8F"/>
<path fill-rule="evenodd" clip-rule="evenodd" d="M192.79 44.106C194.005 43.6551 195.254 43.9536 196.481 43.9218C197.156 43.9028 197.877 43.6487 198.524 44.1187C198.837 44.7539 198.649 45.4462 198.7 46.1131C198.723 46.3736 198.632 46.7674 199.087 46.5387C200.795 43.6741 203.157 42.7468 206.11 43.5661C206.393 43.9409 206.314 44.3918 206.314 44.8238C206.32 46.2084 206.161 47.5804 206.115 48.9587C206.093 49.6129 205.877 49.9559 205.201 49.8543C204.594 49.759 203.986 49.7209 203.356 49.759C201.375 49.8924 199.705 51.8804 199.563 54.1416C199.382 56.9808 199.529 59.82 199.478 62.6528C199.473 63.0911 199.478 63.5294 199.473 63.9613C199.461 64.7616 199.075 65.1935 198.388 65.1935C196.73 65.2062 195.073 65.3142 193.415 65.1236C192.938 65.0665 192.733 64.8696 192.733 64.3043C192.773 57.5715 192.688 50.8388 192.784 44.0997L192.79 44.106Z" fill="#237B8F"/>
<path fill-rule="evenodd" clip-rule="evenodd" d="M213.984 54.707C213.984 57.8701 213.962 61.0396 214.001 64.209C214.013 65.1173 213.751 65.4222 212.94 65.3904C211.35 65.3333 209.755 65.3523 208.159 65.3841C207.404 65.4032 207.109 65.0475 207.114 64.2154C207.126 57.7367 207.126 51.258 207.114 44.7793C207.114 44.1251 207.313 43.8774 207.909 43.8901C209.601 43.9219 211.293 43.9155 212.985 43.8901C213.757 43.8774 214.001 44.2966 213.996 45.0969C213.979 48.2982 213.99 51.4994 213.99 54.707H213.984Z" fill="#247B8F"/>
<path fill-rule="evenodd" clip-rule="evenodd" d="M101.61 65.2251C101.093 65.06 101.167 64.5773 101.167 64.1517C101.167 57.7238 101.173 51.296 101.15 44.8681C101.15 44.1059 101.354 43.8582 102.036 43.8836C103.659 43.928 105.283 43.8963 106.901 43.9026C107.248 43.9026 107.645 43.801 107.798 44.3219C107.906 46.8244 107.832 49.3333 107.844 51.8359C107.855 55.8692 107.855 59.8961 107.844 63.9294C107.844 65.1362 107.753 65.2188 106.669 65.2251C104.982 65.2315 103.29 65.2251 101.604 65.2251H101.61Z" fill="#237B8F"/>
<path fill-rule="evenodd" clip-rule="evenodd" d="M19.7349 6.5293C18.5824 9.66066 17.4412 12.7984 16.2773 15.917C15.772 17.2763 15.4257 18.7181 14.6138 19.9249C13.2853 19.9249 11.9568 19.9249 10.6226 19.8995C9.54952 19.8868 9.32809 19.601 9.38487 18.3878C9.64603 13.0207 13.7565 7.76787 18.4915 6.75796C18.906 6.66903 19.3205 6.60552 19.7349 6.5293Z" fill="#237B8F"/>
<path fill-rule="evenodd" clip-rule="evenodd" d="M210.504 34.2413C211.35 34.2413 212.196 34.254 213.036 34.2413C213.695 34.2286 213.984 34.578 213.979 35.2957C213.973 36.7121 213.962 38.1285 213.979 39.5513C213.99 40.1928 213.786 40.4723 213.184 40.4596C211.463 40.4342 209.743 40.4405 208.017 40.4596C207.353 40.4596 207.086 40.142 207.097 39.4052C207.12 37.9888 207.132 36.5724 207.097 35.156C207.075 34.4192 207.347 34.2096 207.96 34.2413C208.806 34.2858 209.652 34.254 210.493 34.254L210.504 34.2413Z" fill="#267B90"/>
<path fill-rule="evenodd" clip-rule="evenodd" d="M107.793 40.2246C107.594 40.5866 107.27 40.4469 106.998 40.4469C105.436 40.4596 103.875 40.4215 102.32 40.4659C101.422 40.4914 101.105 40.0976 101.15 39.1067C101.207 37.7665 101.184 36.4136 101.156 35.0734C101.144 34.4827 101.292 34.2223 101.865 34.2286C103.586 34.2604 105.312 34.2413 107.032 34.2413C107.361 34.2413 107.702 34.2096 107.793 34.705C107.883 36.547 107.883 38.3826 107.793 40.2246Z" fill="#297C90"/>
<path fill-rule="evenodd" clip-rule="evenodd" d="M177.927 41.1147C177.654 40.7145 177.983 40.4351 178.114 40.1429C178.943 38.2946 179.817 36.4716 180.629 34.6106C180.936 33.9056 181.31 33.5626 182.048 33.607C183.116 33.6706 184.194 33.607 185.262 33.6324C185.557 33.6388 185.92 33.4419 186.13 33.8802C186.148 34.2359 185.977 34.5026 185.778 34.7503C184.285 36.6241 182.798 38.5042 181.333 40.4033C180.339 41.6927 179.136 41.3243 177.927 41.1147Z" fill="#237B8F"/>
<path fill-rule="evenodd" clip-rule="evenodd" d="M54.3448 9.38166C54.6344 8.46067 54.4868 7.50157 54.5095 6.56152C55.0034 6.73937 54.9694 7.20304 54.9694 7.6413C54.9694 10.3789 54.0439 12.7544 52.5791 14.8695C50.24 18.2486 47.1288 19.9317 43.3078 19.9444C38.6863 19.9572 34.0649 19.9635 29.4434 19.9317C28.359 19.9254 27.6607 20.2747 26.9396 21.3228C24.2258 25.2481 20.5411 26.8741 16.1354 26.366C15.1191 26.2516 14.0461 26.2389 13.2228 25.3688C14.7274 25.5657 16.1808 26.131 17.7308 26.0103C22.074 25.6673 25.3783 23.5141 27.5187 19.2204C27.8083 19.5761 28.1887 19.4363 28.5293 19.4363C33.5936 19.4427 38.658 19.4363 43.7223 19.4427C44.5398 19.4427 45.329 19.2775 46.1068 19.0235C47.3388 19.1251 48.2302 18.2359 49.2351 17.6706C49.4168 17.5245 49.6041 17.3784 49.7858 17.2259C51.1427 16.3177 52.0852 14.9648 52.9368 13.5229C53.5784 12.2145 54.3448 10.9632 54.3392 9.38166H54.3448Z" fill="#929594"/>
<path fill-rule="evenodd" clip-rule="evenodd" d="M192.79 44.1063C192.807 49.0479 192.824 53.9958 192.836 58.9374C192.836 60.5761 192.881 62.2149 192.819 63.8472C192.785 64.7492 193.085 64.9588 193.824 64.9334C195.283 64.8762 196.747 64.8762 198.212 64.9334C199.013 64.9651 199.302 64.6729 199.291 63.752C199.257 60.773 199.319 57.7878 199.285 54.8088C199.246 51.4869 201.619 48.8002 204.923 49.5941C205.672 49.772 206.013 49.5941 205.939 48.6668C205.803 46.9582 206.269 45.275 206.115 43.5664C206.66 43.6934 206.621 44.1889 206.581 44.6081C206.428 46.196 206.53 47.8093 206.269 49.3909C206.178 49.9117 206.087 50.2992 205.479 50.1785C201.04 49.2702 199.757 52.1792 199.649 55.914C199.569 58.5309 199.643 61.1541 199.626 63.7774C199.615 65.4097 199.546 65.4923 198.07 65.4987C196.543 65.4987 195.016 65.4605 193.483 65.4415C192.927 65.4351 192.648 65.1493 192.648 64.5078C192.654 57.8449 192.654 51.182 192.665 44.5192C192.665 44.3858 192.745 44.2524 192.785 44.119L192.79 44.1063Z" fill="#979A9B"/>
<path fill-rule="evenodd" clip-rule="evenodd" d="M43.376 45.4456C44.2219 45.5091 44.96 45.1217 45.7037 44.7787C46.6462 44.4039 47.5149 43.8704 48.3495 43.2543C48.5766 43.0891 48.7696 42.7461 49.0932 43.0637C47.1799 44.9248 44.9089 45.8584 42.4165 45.922C38.9362 46.0172 35.4559 45.9728 31.9699 45.922C31.1637 45.9093 30.7322 46.2014 30.4256 47.0335C29.2561 50.2665 27.99 53.4614 26.8488 56.7071C24.7709 62.595 20.1324 65.917 14.5173 65.3644C13.4159 65.2564 12.2407 65.1929 11.3323 64.2719C12.6608 64.5386 13.9609 64.907 15.3406 64.9515C20.1835 65.1103 24.5608 61.6677 26.3662 56.5864C27.5983 53.1247 28.9552 49.7139 30.2553 46.284C30.6016 45.6742 31.1013 45.5345 31.7258 45.5409C35.2572 45.5726 38.7886 45.5599 42.32 45.5472C42.6663 45.5472 43.0297 45.6552 43.3646 45.4392L43.376 45.4456Z" fill="#8D8C86"/>
<path fill-rule="evenodd" clip-rule="evenodd" d="M85.1508 26.2006C86.8938 28.0363 88.915 29.3193 91.3109 29.5924C94.2972 29.9354 97.312 29.9799 100.031 28.2522C102.813 26.4801 104.307 23.7425 104.551 20.1284C104.704 17.8546 104.471 15.6823 103.745 13.5545C103.251 12.1063 102.195 11.1663 101.405 9.99121C103.2 11.2869 104.187 13.2051 104.63 15.4727C105.363 19.2138 105.226 22.8342 103.143 26.0863C101.826 28.1379 99.9577 29.2748 97.8173 29.783C94.4505 30.5769 91.1065 30.5706 87.9441 28.8175C86.8541 28.2141 85.764 27.5091 85.1565 26.2133L85.1508 26.2006Z" fill="#878B8D"/>
<path fill-rule="evenodd" clip-rule="evenodd" d="M66.1937 29.2998C68.4079 29.2871 70.6222 29.2744 72.8364 29.268C73.0464 29.1219 72.9783 28.8805 72.9783 28.6773C72.9329 26.1747 73.0919 23.6722 72.8988 21.1696C72.8988 20.236 72.8988 19.2959 72.8988 18.3559C73.1202 17.7588 73.5745 17.7906 74.04 17.7906C76.4984 17.7969 78.9624 17.8033 81.4207 17.7779C81.716 17.7779 82.1531 18.0573 82.2951 17.4539C82.2951 17.1618 82.2951 16.8632 82.2951 16.5711C82.3973 15.4913 82.3973 14.4115 82.2951 13.3254C82.278 12.9824 82.261 12.633 82.244 12.29C82.6925 12.379 82.7947 12.741 82.8004 13.1729C82.8117 14.4814 82.8231 15.7961 82.8287 17.1046C82.8287 18.0002 82.3802 18.2987 81.6365 18.2923C79.1668 18.2796 76.6914 18.3178 74.2217 18.2733C73.4439 18.2606 73.1543 18.5528 73.2281 19.4102C73.4893 22.3066 73.4325 25.2156 73.4212 28.1247C73.4212 29.6364 73.1884 29.8778 71.8201 29.8778C70.3213 29.8778 68.8281 29.8778 67.3292 29.8778C66.8807 29.8778 66.3868 29.9413 66.188 29.2998H66.1937Z" fill="#A5A5A6"/>
<path fill-rule="evenodd" clip-rule="evenodd" d="M86.8143 64.9015C88.6709 64.9015 90.5274 64.8761 92.3783 64.9142C93.0198 64.9269 93.2185 64.6856 93.2128 63.9742C93.1845 61.0969 93.2015 58.2196 93.2015 55.3423C93.2015 54.199 93.4399 53.1192 93.843 52.0712C94.6833 49.8862 96.9941 49.0859 98.6348 49.4861C99.4921 49.6957 99.7874 49.5877 99.8952 48.4698C100.054 46.8819 99.8839 45.2686 100.213 43.7061C100.787 44.6715 100.469 45.7386 100.429 46.7485C100.401 47.5043 100.253 48.2665 100.304 49.0224C100.372 50.0387 99.8896 50.2229 99.1629 50.045C98.5497 49.8926 97.9479 49.829 97.329 49.9624C95.0807 50.4515 93.6841 52.4713 93.6614 55.3613C93.6387 58.2704 93.6273 61.1858 93.667 64.0949C93.6784 65.1048 93.3378 65.4414 92.4634 65.416C90.9021 65.3588 89.3408 65.4033 87.7795 65.3969C87.3934 65.3969 86.9733 65.4668 86.8143 64.9015Z" fill="#8D9092"/>
<path fill-rule="evenodd" clip-rule="evenodd" d="M126.903 27.7374C128.43 28.3154 129.844 29.2237 131.451 29.5858C134.982 30.3734 138.343 29.7573 141.341 27.6167C143.657 25.9653 144.736 23.2468 144.952 20.2234C145.168 17.1683 144.872 14.1957 143.095 11.6487C143.027 11.5471 143.044 11.3692 143.021 11.2295C145.304 13.9544 145.599 17.2953 145.326 20.7824C145.179 22.7006 144.577 24.4663 143.584 26.0288C142.21 28.2011 140.188 29.2745 137.951 29.8017C134.534 30.602 131.178 30.475 128.005 28.614C127.601 28.3789 127.204 28.1376 126.903 27.7311V27.7374Z" fill="#86898A"/>
<path fill-rule="evenodd" clip-rule="evenodd" d="M220.32 64.0242C221.473 64.2719 222.483 64.9833 223.647 65.2056C227.099 65.8789 230.466 65.7264 233.526 63.605C236.189 61.7566 237.381 58.8603 237.569 55.4558C237.716 52.7246 237.285 50.1014 235.916 47.7512C235.854 47.6369 235.86 47.4718 235.831 47.332C237.023 48.5515 237.41 50.1966 237.727 51.8798C238.216 54.5094 238.062 57.0818 237.188 59.578C236.268 62.2012 234.611 64.0559 232.237 64.9388C228.485 66.3362 224.72 66.3933 221.03 64.5704C220.769 64.4434 220.479 64.3291 220.32 64.0178V64.0242Z" fill="#838687"/>
<path fill-rule="evenodd" clip-rule="evenodd" d="M118.177 63.1349C118.972 63.4652 119.545 64.183 120.317 64.5768C123.667 66.2854 128.567 65.104 130.537 60.7594C132.325 56.8151 132.302 52.8262 131.076 48.7421C130.849 47.9799 130.451 47.3066 129.98 46.6969C129.77 46.4238 129.503 46.1887 129.537 45.7695C131.343 47.6179 132.064 50.0442 132.28 52.6547C132.586 56.3704 132.092 59.902 129.844 62.8872C128.822 64.2465 127.528 65.0785 125.995 65.4596C123.252 66.1456 120.72 65.7582 118.529 63.6304C118.387 63.4906 118.29 63.3001 118.171 63.1286L118.177 63.1349Z" fill="#898C8D"/>
<path fill-rule="evenodd" clip-rule="evenodd" d="M167.071 60.2958C165.68 59.7622 165.601 58.3395 165.544 57.0946C165.43 54.7063 165.521 52.3054 165.499 49.9045C165.493 49.3138 165.72 49.1486 166.197 49.155C167.236 49.1677 168.275 49.1296 169.314 49.1613C169.95 49.1804 170.188 48.8946 170.177 48.2022C170.148 46.8557 170.16 45.5155 170.16 44.1689C170.398 44.1944 170.5 44.3849 170.506 44.6136C170.517 46.0236 170.534 47.44 170.506 48.8501C170.489 49.4472 170.08 49.5806 169.603 49.5678C168.695 49.5424 167.787 49.5678 166.884 49.5361C166.339 49.517 166.038 49.6949 166.044 50.3872C166.066 52.8517 166.038 55.3161 166.066 57.7805C166.078 58.765 166.521 59.5717 167.088 60.2894L167.071 60.2958Z" fill="#9D9FA0"/>
<path fill-rule="evenodd" clip-rule="evenodd" d="M114.679 23.374C113.141 22.4848 112.675 20.827 112.579 19.1311C112.295 14.38 115.798 11.7314 120.05 13.2558C120.51 13.4209 120.947 13.6433 121.464 13.8719C121.725 12.1125 121.844 10.3976 121.93 8.68262C122.355 8.85411 122.395 9.24791 122.361 9.66077C122.242 10.9883 122.106 12.3158 121.986 13.6433C121.913 14.4309 121.538 14.3864 121.033 14.1133C120.118 13.6242 119.17 13.3828 118.131 13.3384C115.928 13.2495 114.316 14.253 113.447 16.457C112.533 18.7754 112.868 20.9921 114.39 22.9294C114.498 23.0628 114.589 23.2152 114.685 23.3549L114.679 23.374Z" fill="#8F9192"/>
<path fill-rule="evenodd" clip-rule="evenodd" d="M101.61 65.2251C103.256 64.971 104.908 65.1298 106.561 65.1361C107.407 65.1361 107.685 64.8503 107.679 63.8849C107.645 57.7873 107.662 51.6897 107.668 45.5858C107.668 45.1602 107.566 44.7092 107.81 44.3154C108.201 44.5886 108.071 45.0268 108.071 45.4079C108.077 51.6389 108.065 57.8699 108.088 64.0945C108.088 65.0345 107.815 65.422 106.958 65.3648C105.175 65.2505 103.387 65.5299 101.61 65.2187V65.2251Z" fill="#797878"/>
<path fill-rule="evenodd" clip-rule="evenodd" d="M107.821 25.7749C108.866 26.6197 109.632 27.8265 110.847 28.4617C113.044 29.6177 115.298 30.0814 117.723 29.7638C118.938 29.605 120.153 29.5542 121.345 29.1667C122.009 28.9508 122.23 28.557 122.168 27.8329C122.043 26.3529 122.179 24.8603 121.93 23.3867C122.509 23.5455 122.412 24.1172 122.429 24.5427C122.469 25.7051 122.475 26.8611 122.622 28.0171C122.73 28.8555 122.475 29.4144 121.595 29.6558C118.603 30.4688 115.611 30.653 112.636 29.7193C110.614 29.0841 108.957 27.7884 107.815 25.7622L107.821 25.7749Z" fill="#989B9D"/>
<path fill-rule="evenodd" clip-rule="evenodd" d="M148.5 65.2251C149.92 64.9837 151.356 65.1044 152.781 65.1425C153.701 65.1679 153.996 64.9075 153.99 63.8277C153.945 57.7492 153.968 51.6706 153.973 45.5921C153.973 45.1666 153.871 44.7156 154.115 44.3154C154.507 44.5886 154.376 45.0268 154.382 45.4079C154.388 51.6389 154.376 57.8699 154.399 64.0945C154.399 65.0345 154.127 65.4283 153.269 65.3648C151.685 65.2505 150.09 65.5236 148.506 65.2187L148.5 65.2251Z" fill="#797878"/>
<path fill-rule="evenodd" clip-rule="evenodd" d="M184.45 65.2248C185.869 64.9834 187.294 65.1358 188.714 65.1295C189.469 65.1295 189.736 64.8564 189.73 63.9925C189.702 60.1816 189.707 56.3706 189.736 52.5659C189.736 51.7783 189.276 51.0225 189.651 50.2285C190.406 54.9097 190.059 59.6353 190.122 64.3482C190.127 64.8945 189.878 65.3264 189.401 65.3327C187.749 65.3327 186.091 65.5296 184.444 65.2311L184.45 65.2248Z" fill="#797878"/>
<path fill-rule="evenodd" clip-rule="evenodd" d="M49.0932 43.0582C48.2245 43.2869 47.6227 44.0745 46.7995 44.4048C46.4361 44.5509 46.1182 44.843 45.7037 44.7732C47.1458 43.8141 48.6674 43.0201 49.854 41.6037C51.949 39.1075 52.9652 36.154 53.1469 32.7812C53.6238 33.5752 53.4535 34.4708 53.3172 35.2774C52.7779 38.4406 51.3812 41.0574 49.0989 43.0519L49.0932 43.0582Z" fill="#828485"/>
<path fill-rule="evenodd" clip-rule="evenodd" d="M177.927 41.1144C179.749 41.3812 181.089 40.7016 182.196 38.9612C183.349 37.1446 184.808 35.5631 186.131 33.8799C186.59 34.1848 186.307 34.5214 186.113 34.7755C184.433 36.8969 182.758 39.0247 181.044 41.1081C180.464 41.8067 178.585 41.7559 177.932 41.1144H177.927Z" fill="#818383"/>
<path fill-rule="evenodd" clip-rule="evenodd" d="M173.492 49.3845C174.883 49.0669 176.121 48.1967 177.546 47.9807C179.306 47.714 181.026 47.6632 182.582 48.8636C182.826 49.0542 183.076 49.2193 183.087 49.6004C181.14 47.9807 179.005 48.0061 176.808 48.7366C176.064 48.9843 175.349 49.3209 174.628 49.6385C174.191 49.8354 173.765 50.0768 173.498 49.3845H173.492Z" fill="#909294"/>
<path fill-rule="evenodd" clip-rule="evenodd" d="M35.155 6.49763C34.2012 6.51669 33.2417 6.52939 32.2878 6.54845C32.8669 4.99229 33.4347 3.42978 34.0365 1.87998C34.1557 1.5624 34.2068 1.27022 34.1728 0.946289C34.82 1.17495 34.6554 1.68308 34.485 2.15945C34.0819 3.2964 33.6731 4.42699 33.236 5.54488C32.9919 6.16735 33.1338 6.3833 33.7356 6.37695C34.2068 6.37695 34.7008 6.26262 35.1606 6.49763H35.155Z" fill="#91908B"/>
<path fill-rule="evenodd" clip-rule="evenodd" d="M35.9725 32.5017H35.3253C35.8987 30.9074 36.4778 29.3195 37.0342 27.7189C37.2272 27.1599 37.5679 26.6391 37.4941 25.9912C38.2208 26.2961 37.8972 26.8804 37.7325 27.3505C37.2783 28.6271 36.7617 29.8784 36.3018 31.1615C36.1485 31.587 35.9044 32.0062 35.9782 32.508L35.9725 32.5017Z" fill="#8F8E89"/>
<path fill-rule="evenodd" clip-rule="evenodd" d="M107.793 40.2247C107.571 38.3827 107.566 36.5471 107.793 34.7051C108.355 35.734 108.008 36.8646 108.048 37.9508C108.077 38.7066 108.304 39.5323 107.793 40.2247Z" fill="#797978"/>
<path fill-rule="evenodd" clip-rule="evenodd" d="M199.092 46.5323C198.967 46.7736 198.842 47.0214 198.712 47.2627C198.649 47.2564 198.587 47.25 198.524 47.2437V44.1123C199.013 44.3537 198.922 44.8491 198.95 45.3001C198.979 45.7129 198.837 46.1512 199.086 46.5323H199.092Z" fill="#898A8A"/>
<path fill-rule="evenodd" clip-rule="evenodd" d="M43.376 45.4463C43.0864 45.802 42.706 45.6559 42.3654 45.6559C39.1462 45.6686 35.9271 45.6559 32.7023 45.6559C31.845 45.6559 30.9593 45.5035 30.261 46.2784C30.261 45.9735 30.3178 45.6877 30.4994 45.4463C34.7916 45.4463 39.0838 45.4463 43.376 45.4463Z" fill="#828485"/>
<path fill-rule="evenodd" clip-rule="evenodd" d="M132.041 52.4706C131.916 50.8446 131.553 49.263 130.832 47.7958C130.468 47.059 129.872 46.5255 129.537 45.7696C128.129 44.2135 126.398 43.4767 124.467 43.2988C121.986 43.0638 119.806 43.8641 118.006 45.8776C117.762 45.433 117.859 45.0646 117.853 44.7153C117.842 41.6601 117.853 38.5986 117.842 35.5435C117.842 34.3938 117.575 34.1144 116.581 34.1207C115.054 34.1207 113.521 34.1652 111.994 34.1207C111.239 34.0953 110.955 34.3748 110.966 35.245C111 38.0143 110.978 40.7772 110.978 43.5466C110.978 50.3555 110.989 57.1645 110.966 63.9735C110.966 64.9897 111.227 65.4407 112.193 65.3899C113.459 65.32 114.73 65.3137 115.997 65.3899C116.894 65.4407 117.132 65.0405 117.081 64.1195C117.047 63.4717 116.95 62.7857 117.212 62.1315C117.677 62.3728 117.853 62.8365 118.171 63.135C118.716 63.5288 119.136 64.0941 119.727 64.4308C121.458 65.428 123.247 65.6948 125.183 65.3581C127.505 64.9516 129.208 63.6368 130.446 61.4836C132.03 58.7206 132.28 55.6274 132.035 52.4706H132.041ZM125.126 56.3896C124.377 60.1752 120.959 60.8167 118.989 58.7905C117.416 56.5103 117.212 54.0522 118.234 51.448C118.966 49.5806 120.771 48.5326 122.418 48.9455C123.343 49.1741 123.905 49.9173 124.456 50.6795C125.336 52.4897 125.512 54.4333 125.12 56.3896H125.126Z" fill="#237B8F"/>
<path fill-rule="evenodd" clip-rule="evenodd" d="M124.462 50.6802C123.871 50.2482 123.531 49.4797 122.787 49.2447C120.658 48.5587 118.756 49.9307 118.08 52.6492C117.53 54.8595 118.018 56.8667 118.994 58.7912C117.422 57.2986 117.325 55.2787 117.513 53.2272C117.603 52.2363 117.893 51.2518 118.432 50.3943C119.994 47.9235 123.355 48.076 124.462 50.6738V50.6802Z" fill="#898B8C"/>
<path fill-rule="evenodd" clip-rule="evenodd" d="M235.831 47.3321C235.371 46.6652 234.855 46.0682 234.219 45.6108C230.455 42.905 226.424 42.6129 222.239 44.0674C218.98 45.198 216.993 47.6942 216.244 51.4163C215.653 54.3507 215.852 57.2217 216.954 59.9529C217.652 61.6996 218.696 63.1859 220.32 64.0306C223.823 66.0695 227.497 66.1203 231.204 65.066C233.56 64.399 235.479 62.8556 236.552 60.3594C238.471 55.9005 238.199 51.5306 235.831 47.3321ZM230.449 57.0565C229.785 59.5718 227.514 61.3502 224.862 59.6671C222.387 57.7743 222.489 52.585 223.937 50.4445C225.566 48.0435 228.042 47.9165 229.779 50.2285C230.863 52.3944 231.079 54.6429 230.449 57.0502V57.0565Z" fill="#237B8F"/>
<path fill-rule="evenodd" clip-rule="evenodd" d="M229.779 50.2356C228.644 49.0605 227.4 48.3491 225.816 49.0796C224.153 49.8481 223.437 51.417 223.222 53.2463C222.938 55.6154 223.187 57.8893 224.862 59.6678C223.698 59.0453 223.165 57.8703 222.938 56.5872C222.478 53.9449 222.518 51.3789 224.442 49.3273C226.055 47.6123 229.183 48.3809 229.779 50.2356Z" fill="#86898A"/>
<path fill-rule="evenodd" clip-rule="evenodd" d="M143.027 11.2296C141.943 9.87034 140.58 8.99382 139.064 8.365C136.873 7.46307 134.585 7.39955 132.325 7.66632C129.163 8.03472 126.432 9.40667 124.717 12.6397C122.543 16.7492 122.81 24.441 126.903 27.7375C130.872 30.3735 135.039 30.7165 139.365 29.0396C143.146 27.5724 144.923 24.0536 145.162 19.9568C145.349 16.7873 144.844 13.7957 143.027 11.2296ZM137.895 21.316C136.912 24.8285 133.937 25.6669 131.553 23.1516C129.736 20.5411 129.878 16.3236 131.859 14.1196C133.415 12.3856 135.283 12.3983 136.839 14.1514C137.02 14.361 137.196 14.5769 137.372 14.7929C138.338 16.8889 138.525 19.0802 137.895 21.316Z" fill="#237B8F"/>
<path fill-rule="evenodd" clip-rule="evenodd" d="M137.372 14.7928C136.594 14.183 136.044 13.1922 134.937 13.1414C133.057 13.0524 131.581 14.1068 130.962 16.1076C130.219 18.5466 130.451 20.8967 131.553 23.1452C130.559 22.5037 130.4 21.3159 130.247 20.2552C129.906 17.8988 130.116 15.6503 131.718 13.7956C133.273 11.9981 136.186 12.2331 137.367 14.7864L137.372 14.7928Z" fill="#868889"/>
<path fill-rule="evenodd" clip-rule="evenodd" d="M101.405 9.99098C98.3737 7.69803 95.0183 7.06287 91.4585 7.72344C89.3863 8.11089 87.4446 8.87944 85.8322 10.4991C82.7095 13.6368 82.261 19.9821 83.9586 24.1043C84.2709 24.8602 84.5718 25.6351 85.1509 26.2004C86.3886 27.9026 88.035 28.8998 89.8916 29.4461C92.3442 30.1702 94.8594 30.1765 97.3177 29.6112C100.906 28.7855 103.387 26.4608 104.415 22.4021C104.664 21.4176 104.715 20.414 104.75 19.3978C104.869 15.7075 104.108 12.411 101.4 9.98462L101.405 9.99098ZM97.4937 21.3287C96.8465 23.9074 94.4676 25.5906 91.9979 24.0281C89.6361 22.2179 89.3749 17.7527 90.7034 15.2247C91.8162 13.0969 94.0418 11.96 96.1425 13.7384C97.999 15.9552 98.1864 18.553 97.4937 21.3287Z" fill="#237B8F"/>
<path fill-rule="evenodd" clip-rule="evenodd" d="M96.1425 13.7384C95.0467 13.262 93.9623 12.8174 92.7757 13.4208C90.8965 14.3799 90.3287 16.2473 90.1471 18.2989C89.954 20.4966 90.5274 22.4656 91.9979 24.0344C91.5948 24.0027 91.3904 23.6343 91.1463 23.3612C89.091 21.0237 89.2443 15.809 91.4302 13.6431C92.8382 12.2458 94.9616 12.2902 96.1368 13.7384H96.1425Z" fill="#86898B"/>
<path fill-rule="evenodd" clip-rule="evenodd" d="M82.2951 17.4541C82.4257 18.2608 81.8523 17.886 81.6252 17.886C79.1668 17.9178 76.7028 17.9178 74.2444 17.8987C73.7391 17.8987 73.2793 17.9432 72.8989 18.3497C72.8989 17.5303 73.4382 17.6764 73.8754 17.6764C76.3451 17.6701 78.8148 17.6764 81.2902 17.6701C81.6308 17.6701 82.0169 17.8098 82.3008 17.4541H82.2951Z" fill="#7C7C7C"/>
<path fill-rule="evenodd" clip-rule="evenodd" d="M72.8932 21.1636C73.1203 21.3859 73.0806 21.6908 73.0806 21.9702C73.0806 24.1107 73.0862 26.2449 73.0806 28.3854C73.0806 28.6966 73.1714 29.0523 72.8364 29.2556C72.8535 26.5561 72.8762 23.8567 72.8932 21.1572V21.1636Z" fill="#7C7C7C"/>
<path fill-rule="evenodd" clip-rule="evenodd" d="M82.295 13.3262C82.5528 14.406 82.5528 15.4857 82.295 16.5719V13.3262Z" fill="#7C7C7C"/>
<path fill-rule="evenodd" clip-rule="evenodd" d="M189.906 54.751C189.895 53.2393 189.724 51.7339 189.656 50.2222C189.191 47.0274 187.595 44.8297 184.842 43.896C181.18 42.6574 177.535 43.1338 173.952 44.4486C173.646 44.5629 173.305 44.7027 173.333 45.1663C173.407 46.57 173.18 47.9865 173.492 49.3838C173.964 49.7268 174.367 49.4156 174.776 49.2123C176.467 48.393 178.21 47.8912 180.073 48.0627C181.237 48.1707 182.281 48.5835 183.087 49.5934C184.03 51.8673 183.456 51.6323 182.009 51.5942C179.505 51.5243 177.007 51.6768 174.622 52.6867C172.947 53.3981 171.698 54.5985 171.261 56.6056C170.728 59.051 170.943 61.363 172.476 63.3638C173.254 64.1451 174.083 64.8882 175.122 65.0915C178.108 65.6758 181.009 65.7012 183.303 62.9509C183.757 62.4047 183.854 62.843 184.013 63.1987C184.189 63.8656 183.689 64.7167 184.45 65.2248C185.875 65.2185 187.306 65.2248 188.731 65.2248C189.77 65.2248 189.906 65.0787 189.912 63.9037C189.923 60.8549 189.934 57.8061 189.906 54.7573V54.751ZM183.473 57.19C183.121 59.2416 181.589 60.7279 179.811 60.7279C178.693 60.7279 177.824 60.08 177.654 59.1082C177.438 57.8633 177.864 56.955 178.971 56.4087C179.567 56.1166 180.192 55.9514 180.856 55.9578C181.339 55.9578 181.833 55.9895 182.31 55.907C183.684 55.6656 183.729 55.6974 183.473 57.1964V57.19Z" fill="#237B8F"/>
<path fill-rule="evenodd" clip-rule="evenodd" d="M52.9425 13.5225C52.2442 15.1358 51.3301 16.5077 49.7915 17.2255C50.9384 16.0949 51.9262 14.7928 52.9425 13.5225Z" fill="#818283"/>
<path fill-rule="evenodd" clip-rule="evenodd" d="M54.3448 9.38184C54.7366 9.88997 54.3789 10.3663 54.2426 10.7983C53.9304 11.7701 53.6863 12.8054 52.9425 13.5231C53.3683 12.1257 54.1688 10.8872 54.3448 9.38184Z" fill="#818283"/>
<path fill-rule="evenodd" clip-rule="evenodd" d="M49.2408 17.6699C48.321 18.4766 47.407 19.2959 46.1125 19.0228C47.265 18.8831 48.1564 18.0066 49.2408 17.6699Z" fill="#818283"/>
</g>
<defs>
<clipPath id="clip0_3252_291">
<rect width="238" height="66" fill="white"/>
</clipPath>
</defs>
</svg>
